<svg id="G" xmlns="http://www.w3.org/2000/svg" viewBox="0 0 450.89 521.65"><defs><style>.cls-1{fill:none;}.cls-2{fill:#ea326f;fill-rule:evenodd;}</style></defs><title>GuestivusLogo</title><polygon class="cls-1" points="296.21 0 0 296.21 225.45 521.65 450.89 296.21 316.31 161.62 138.75 339.17 182.49 382.9 316.31 249.08 363.43 296.21 225.45 434.19 87.46 296.21 339.94 43.73 296.21 0"/><path class="cls-2" d="M200.82,345.83a5,5,0,0,0,2.51-2.26C202.53,344.37,201.36,344.7,200.82,345.83Z" transform="translate(-24.51 4.72)"/><path class="cls-2" d="M202.21,342.71c.73-.91,2-1.14,2.52-2.26C203.82,341.11,202.64,341.41,202.21,342.71Z" transform="translate(-24.51 4.72)"/><path class="cls-2" d="M210.1,338.27c1.06-.61.81-1,2-2.3a6.31,6.31,0,0,0-1.58,1C210.13,337.64,210.54,337.55,210.1,338.27Z" transform="translate(-24.51 4.72)"/><path class="cls-2" d="M241.62,323l1.39-.63c.26-.9,1-1.17,1.31-2A5.07,5.07,0,0,0,241.62,323Z" transform="translate(-24.51 4.72)"/><path class="cls-2" d="M206.89,338.36c-.18.69,1.89-.74,2.13-1.53-.3-.38-.74.5-1.74.79C207.32,337.85,207.35,338.09,206.89,338.36Z" transform="translate(-24.51 4.72)"/><path class="cls-2" d="M245.56,319.55c1-1,1.33-.7,2.09-1,.18-.76-.34-.86-1.32-.5Z" transform="translate(-24.51 4.72)"/><path class="cls-2" d="M225.14,325.31c-.06.69,2-1,2.16-2.09C226.22,323.45,226.14,325,225.14,325.31Z" transform="translate(-24.51 4.72)"/><path class="cls-2" d="M256.46,310.42c.44-.36,1.07-1.26.89-.68.72-.29.85-1.37,1.32-2a7.28,7.28,0,0,0,3-1.64c-.65-.79,1.25-2.51,2.48-4.17a7.83,7.83,0,0,1-2.66,2.05c.45.55-.22.78-1.17,2.19-.18-.07-.36-.12-.85.11a5,5,0,0,1-2.16,2.1C256.75,309.31,256.29,310.17,256.46,310.42Z" transform="translate(-24.51 4.72)"/><path class="cls-2" d="M228.88,322.21l1.39-.63a1,1,0,0,1,.58-1.1C231,319.79,229,321.31,228.88,322.21Z" transform="translate(-24.51 4.72)"/><path class="cls-2" d="M230,316.19a7.47,7.47,0,0,0,2.2-2.67C231.28,314.27,229.62,315.64,230,316.19Z" transform="translate(-24.51 4.72)"/><path class="cls-2" d="M280.89,290.68c1-.46,2.34-1.88,2-2.31A12.18,12.18,0,0,0,280.89,290.68Z" transform="translate(-24.51 4.72)"/><path class="cls-2" d="M238.25,308.54c.94-.82,2.24-1.18,2.71-2.62A9.5,9.5,0,0,0,238.25,308.54Z" transform="translate(-24.51 4.72)"/><path class="cls-2" d="M271.67,287.72c1.32-1,.81-1.27,2.06-2.88a4.76,4.76,0,0,1-1.24.84C272.61,286.75,270.82,287.53,271.67,287.72Z" transform="translate(-24.51 4.72)"/><path class="cls-2" d="M246.38,298.19c.07-.65-1.85,1.21-2.78,1.27C243.14,300.7,245.44,298.77,246.38,298.19Z" transform="translate(-24.51 4.72)"/><path class="cls-2" d="M256.39,289.74a12.8,12.8,0,0,0,2.55-2.82c-1.2.89-2.27,1.95-3.55,2.73C254.61,290.76,257.16,288.64,256.39,289.74Z" transform="translate(-24.51 4.72)"/><path class="cls-2" d="M295.87,271.39c.15,1,1.68-1.43,2.32-1.89C298.13,268.67,296.49,270.92,295.87,271.39Z" transform="translate(-24.51 4.72)"/><path class="cls-2" d="M296.14,267.41c-.92.21-1.08,1.44-2.12,1.52-.28.74-.07,1,.62.82C295,268.51,296.55,267.89,296.14,267.41Z" transform="translate(-24.51 4.72)"/><path class="cls-2" d="M316.31,258.18a8.16,8.16,0,0,0,3.06-2.79A20.68,20.68,0,0,0,316.31,258.18Z" transform="translate(-24.51 4.72)"/><path class="cls-2" d="M245.24,290.43c.82-.15,1.17-.93,1.93-1.16.76-1.21-.13-.82-1.16-.3C245.75,289.45,245.49,289.94,245.24,290.43Z" transform="translate(-24.51 4.72)"/><path class="cls-2" d="M254.47,285.93a7.07,7.07,0,0,0,2.47-1.69C257,283.62,254.68,284.9,254.47,285.93Z" transform="translate(-24.51 4.72)"/><path class="cls-2" d="M251.15,285.24c.26-.07.4-.29.54-.53,2.56-1.57,4.34-4.18,6.81-5.87.94-1.5-.09-1.1.31-2.07-1.45.87-.7,1.28-1.67,2.14-1.22.72-.71-.2-1.73.79.39.59-1.28,1.95-1.9,3.07-.92.23-1.46,1-2.28,1.33C250.17,285.47,252.21,283.86,251.15,285.24Z" transform="translate(-24.51 4.72)"/><path class="cls-2" d="M309.76,255.65c-.66.42.75-1.37,1.12-1.62.16-1.08-1,1.09-1.58,1-.92,1.3-.06.88-.28,1.51a24.62,24.62,0,0,0,2.48-1.69C312,253.81,310.47,254.94,309.76,255.65Z" transform="translate(-24.51 4.72)"/><path class="cls-2" d="M225.28,294.32c1.07-.64,2.33-1,2.86-2.41A10.46,10.46,0,0,0,225.28,294.32Z" transform="translate(-24.51 4.72)"/><path class="cls-2" d="M224.47,293.86c-.14.76,1.69-1,2-1.73C225.38,292.18,225.22,293.41,224.47,293.86Z" transform="translate(-24.51 4.72)"/><path class="cls-2" d="M228.87,291c.54-.93.06-.88.28-1.51-.53.34-.89.9-1.44,1.21C227.57,291.33,228.13,291.27,228.87,291Z" transform="translate(-24.51 4.72)"/><path class="cls-2" d="M312.85,252.3c.41.71,2.3-1.89,3.36-2.37C316.43,248.55,313.75,251.33,312.85,252.3Z" transform="translate(-24.51 4.72)"/><path class="cls-2" d="M213.85,294a13.49,13.49,0,0,0,3-4.12A21.32,21.32,0,0,0,213.85,294Z" transform="translate(-24.51 4.72)"/><path class="cls-2" d="M323.6,243c-.25-.33-2,.57-2.47,1.69C321.35,245,323.16,244.21,323.6,243Z" transform="translate(-24.51 4.72)"/><path class="cls-2" d="M247.62,278c1.19-.46,4-3.76,2-2.87C249.27,276.49,248.26,277,247.62,278Z" transform="translate(-24.51 4.72)"/><path class="cls-2" d="M271.49,266.26c.61.37,3.11-2.05,3.79-3.66-.66.4-.5,0-.31-.42C273.34,262.92,273,265.35,271.49,266.26Z" transform="translate(-24.51 4.72)"/><path class="cls-2" d="M230.93,283.17a7.2,7.2,0,0,0,3.41-2.94C233.34,281.4,231.73,281.74,230.93,283.17Z" transform="translate(-24.51 4.72)"/><path class="cls-2" d="M329,238.3c.43-.37.86-.73.7-.32a8.11,8.11,0,0,1,1.15-1.42c.21-.22.43-.42.65-.62l.33-.3.16-.14.07-.06a2.16,2.16,0,0,0,1-1.15,2.18,2.18,0,0,1-.81.53l-.42.16-.2.08a2.55,2.55,0,0,0-.34.23A5.43,5.43,0,0,0,329,238.3Z" transform="translate(-24.51 4.72)"/><path class="cls-2" d="M259.83,266.9c1-.15,1.15-1.38,1.67-2.14a4.53,4.53,0,0,1-1.24.84C260.36,265.81,260.2,266.26,259.83,266.9Z" transform="translate(-24.51 4.72)"/><path class="cls-2" d="M333.2,234.09c0,.63.43-.19.72,0-.62-.49.34-.39.45-1.29-.59-.38-.25,1-.85.61C333.46,233.76,333.42,234.06,333.2,234.09Z" transform="translate(-24.51 4.72)"/><path class="cls-2" d="M334.66,233.09c.81-.46,1.32.44,1.64-.62-.81.15-.12-1.07-.9-.94C335.73,232.47,334.8,232.31,334.66,233.09Z" transform="translate(-24.51 4.72)"/><path class="cls-2" d="M257.34,261.7c1.35-1.11,2.88-3.14,1.35-2.55C257.91,260.46,257.43,260.77,257.34,261.7Z" transform="translate(-24.51 4.72)"/><path class="cls-2" d="M338.31,229.74c.51.34.85-.65,1.28-.81.22.21,0,.84-.22,1.45.65-.13.57-1.71,1.45-2.42l.08.12-.08-.43c-.13-.23-.19,0-.52-.27-.46,1.1.17.06.3.62C339.89,228.72,339,228.38,338.31,229.74Z" transform="translate(-24.51 4.72)"/><path class="cls-2" d="M309.5,232.85a6.46,6.46,0,0,0,2.59-3.4C310.86,230.55,309.53,231.85,309.5,232.85Z" transform="translate(-24.51 4.72)"/><path class="cls-2" d="M286.44,242.58c1-.93.42-.17,1.39-.64.29-.69-.19-.65-.27-1C287,241.29,286.79,242,286.44,242.58Z" transform="translate(-24.51 4.72)"/><path class="cls-2" d="M312.26,219.71a20,20,0,0,0,1.8-1.65c.25-.27.65-.71.94-1.1a11.61,11.61,0,0,0,.9-1.31,15.77,15.77,0,0,1-1.16,1.23L313.49,218C312.77,218.71,312.2,219.32,312.26,219.71Z" transform="translate(-24.51 4.72)"/><path class="cls-2" d="M286.2,224.19a15.32,15.32,0,0,0,2.13-1.53c.78-1.1-1.78,1-1-.09C286.79,222.9,286.56,223.61,286.2,224.19Z" transform="translate(-24.51 4.72)"/><path class="cls-2" d="M268,232.25a8.63,8.63,0,0,0,2.93-3.55C269.94,229.82,267.84,231.62,268,232.25Z" transform="translate(-24.51 4.72)"/><path class="cls-2" d="M344.57,201.21l1,1.76c.13-.14.26-.27.63.29C346.83,203.35,345.09,201.11,344.57,201.21Z" transform="translate(-24.51 4.72)"/><path class="cls-2" d="M291,215.64c1.42-.8,2.3-2.33,3.9-2.89.3-.71-.54-.31-.81-.46.61-.92,2-1.68,1.66-2.14-.74.45-1,1.54-2,1.73C293.86,213.07,291.89,214,291,215.64Z" transform="translate(-24.51 4.72)"/><path class="cls-2" d="M351.11,203.79c.52.52.91,1.32,1.48,1.7,1.14.67.41-.87-.54-1.82C350.55,202.49,352.61,205,351.11,203.79Z" transform="translate(-24.51 4.72)"/><path class="cls-2" d="M310.36,196.07c.44.46,6.72-5.45,6.76-6.64C314.89,191.76,312.79,194.34,310.36,196.07Z" transform="translate(-24.51 4.72)"/><path class="cls-2" d="M304.12,195.94a20.58,20.58,0,0,0,5.14-5.41C307.55,192.37,305.72,193.86,304.12,195.94Z" transform="translate(-24.51 4.72)"/><path class="cls-2" d="M334.26,175.48a25.36,25.36,0,0,0,4.6-4.5A27.15,27.15,0,0,0,334.26,175.48Z" transform="translate(-24.51 4.72)"/><path class="cls-2" d="M350.4,180.26c1,1.29,2.12,2,3.07,3.32.56.26-.57-1.18-1.09-2Z" transform="translate(-24.51 4.72)"/><path class="cls-2" d="M357.28,186.74c1,1.64,2.4,2.43,3.45,3.88C361.45,190.94,358.54,187.14,357.28,186.74Z" transform="translate(-24.51 4.72)"/><path class="cls-2" d="M389.77,245.31c.34.23.28.05.21-.15.45.28.59.79.84,1.24.75.55,1.05-.22,1.83,1,1.27.64-1.31-1.56-.12-.85C391.66,245.71,388.82,243.48,389.77,245.31Z" transform="translate(-24.51 4.72)"/><path class="cls-2" d="M393.37,247.75a2,2,0,0,0,1.05,1.09c.26.51.51,1,.11.84.33.54,1.05.78,1.62,1.13l-.79-1.74C394.46,248.81,394.19,248.08,393.37,247.75Z" transform="translate(-24.51 4.72)"/><path class="cls-2" d="M397.45,255.44a7.5,7.5,0,0,0,2.3,2A3.92,3.92,0,0,0,397.45,255.44Z" transform="translate(-24.51 4.72)"/><path class="cls-2" d="M378.79,211.06c1,1.26,1.62.6,1.34-.07C378.81,209.62,379.28,211,378.79,211.06Z" transform="translate(-24.51 4.72)"/><path class="cls-2" d="M377.92,208c1.21,1.54,2.87,3.79,4.24,3.83C380.64,210.6,380,208.77,377.92,208Z" transform="translate(-24.51 4.72)"/><path class="cls-2" d="M380.72,212.88a19.76,19.76,0,0,0,2.83,2.55,36.57,36.57,0,0,1-2.42-2.86C380.78,212.44,381.21,213.13,380.72,212.88Z" transform="translate(-24.51 4.72)"/><path class="cls-2" d="M383.43,218.79c2.49,2.22,2.71,3.05,2.23.66A3.23,3.23,0,0,0,383.43,218.79Z" transform="translate(-24.51 4.72)"/><path class="cls-2" d="M405.51,263.41a6.44,6.44,0,0,0,2.62,2.71A8.67,8.67,0,0,0,405.51,263.41Z" transform="translate(-24.51 4.72)"/><path class="cls-2" d="M417.4,277.34a34.3,34.3,0,0,1,3.91,3.37,14.32,14.32,0,0,0,3.47,2.6,70.74,70.74,0,0,0-6.44-5.92c-.09-.34.62.15,1.08.38C418.05,275.7,417,276.06,417.4,277.34Z" transform="translate(-24.51 4.72)"/><path class="cls-2" d="M400.17,234.26c1.11,1.64,1.27-.11,1.83,1C402.74,234.8,400,233.62,400.17,234.26Z" transform="translate(-24.51 4.72)"/><path class="cls-2" d="M401.79,235.38a6.06,6.06,0,0,0,2.67,2.21A7.58,7.58,0,0,0,401.79,235.38Z" transform="translate(-24.51 4.72)"/><path class="cls-2" d="M430.71,289.62l.29,1c.79.52.86.3,1.67.83,0,0,0,0,0,0l0,0C432,290.86,431.8,290.26,430.71,289.62Z" transform="translate(-24.51 4.72)"/><path class="cls-2" d="M416.77,255.45c.63.22.21-.65,1.51.27C417.16,254.35,414.92,253.42,416.77,255.45Z" transform="translate(-24.51 4.72)"/><path class="cls-2" d="M445.08,314.21c-3,1.92-4.14,4.25-4,4.78A45.62,45.62,0,0,0,445.08,314.21Z" transform="translate(-24.51 4.72)"/><path class="cls-2" d="M409.72,348.14c-1.46.75-.62,1.52-2.36,2.46-.85.16.84-1.27,1-1.82a4.35,4.35,0,0,0-2.05,2.87c.74-.65,1.1-.82,1.39-.63-.78,1.65-2.55,2-3.29,3.71a4.59,4.59,0,0,1,2.13-1.52,9.16,9.16,0,0,1,3.79-3.68C410,349.14,408.5,350,409.72,348.14Z" transform="translate(-24.51 4.72)"/><path class="cls-2" d="M399.59,358.3l-1.39.64c-.75,1.37-.94,1.22-1.16,2.19,1.24-.6,2.07-2.94,1.77-1.37A1.43,1.43,0,0,0,399.59,358.3Z" transform="translate(-24.51 4.72)"/><path class="cls-2" d="M395.14,361.72c.23.25-.49,1.42-1,2.39l1-.47a1.88,1.88,0,0,1,.74-.89c-.28-.41-.49,0,.42-1.3C395.7,361.78,395.85,361.33,395.14,361.72Z" transform="translate(-24.51 4.72)"/><path class="cls-2" d="M390.51,365.5c-.61,1.27-1.76,1.81-2.41,3,1.35-.89,2.17-2.52,3.76-3.1C392,364.49,391.24,365.57,390.51,365.5Z" transform="translate(-24.51 4.72)"/><path class="cls-2" d="M386.94,370.72c.61-1,.71-1.51-.26-1a5.43,5.43,0,0,0-.93,1.25C385.9,371.13,386.32,371,386.94,370.72Z" transform="translate(-24.51 4.72)"/><path class="cls-2" d="M385.9,371.19c-.64.34-.5-.1-1.19.28-.41.66.08.67-.58,1.09-.16.45.7-.09,1.19-.27Z" transform="translate(-24.51 4.72)"/><path class="cls-2" d="M384.89,373.59c0-.37-2.6,1.05-3,2.21A12.11,12.11,0,0,0,384.89,373.59Z" transform="translate(-24.51 4.72)"/><path class="cls-2" d="M368.42,387.76c-.34,1-1.06,1.49-1.51,2.35.93-.23,1.21-1.32,2.13-1.53C369.37,387.79,369.72,387,368.42,387.76Z" transform="translate(-24.51 4.72)"/><path class="cls-2" d="M360.26,396.18a5.08,5.08,0,0,0-2.16,2.1l1.39-.63Z" transform="translate(-24.51 4.72)"/><path class="cls-2" d="M355,401.06c-1.17.93-2.26,2-3.4,2.94-.69,1.09,2.05-1.16,1.35-.07.76-.55.4-.69.58-1.09C354,402.2,354.83,402,355,401.06Z" transform="translate(-24.51 4.72)"/><path class="cls-2" d="M352.37,405.6c-.77.42-1.05,1.51-1.82,1.93.43.25,1.19-.39,2.28-1.32C353.16,405.54,351.82,406.49,352.37,405.6Z" transform="translate(-24.51 4.72)"/><path class="cls-2" d="M345,410.08c-1.18,2.16-3.24,3.16-4.87,4.71-.58,1.66,2.54-1.23,3.62-1.38-.19-.81-.64-.46,1-2.4,1.5-.69,1.58-.21,3-1.63C347.51,408.58,346.78,409.09,345,410.08Z" transform="translate(-24.51 4.72)"/><path class="cls-2" d="M345.72,411.68c-1.28,1-2.25,2.39-3.6,3.3C342.44,415.17,345.17,413.25,345.72,411.68Z" transform="translate(-24.51 4.72)"/><path class="cls-2" d="M340.42,417.7c-.6.24-1,.78-1.58,1-.52,1,1.14,0,.42,1.19a6,6,0,0,0,1.47-1.77C339.34,418.88,339.52,419.13,340.42,417.7Z" transform="translate(-24.51 4.72)"/><path class="cls-2" d="M332.65,425.39a6.23,6.23,0,0,0-1.59,1c.4,0-.09.91.82.45C331.67,426.4,332.15,426.37,332.65,425.39Z" transform="translate(-24.51 4.72)"/><path class="cls-2" d="M209.18,460.69a12.85,12.85,0,0,0-4.23-3.83c1,1.3,1.81,2.7,2.89,3.91C208.5,461,208.69,460.67,209.18,460.69Z" transform="translate(-24.51 4.72)"/><path class="cls-2" d="M181.82,435.9c-.19-.94-1.28-1.22-1.73-2C179.4,433.74,180.92,435.75,181.82,435.9Z" transform="translate(-24.51 4.72)"/><path class="cls-2" d="M155.51,408c.4-.32-1.85-2.64-3.14-3.25A37,37,0,0,0,155.51,408Z" transform="translate(-24.51 4.72)"/><path class="cls-2" d="M142.78,394.64c-1.53-1.06-3.84-3.42-4.65-3.52C139.35,392.41,141.78,394.68,142.78,394.64Z" transform="translate(-24.51 4.72)"/><path class="cls-2" d="M116.08,368.89a35,35,0,0,0-2.78-3.06C112.91,366,114.81,368.4,116.08,368.89Z" transform="translate(-24.51 4.72)"/><path class="cls-2" d="M90.07,339.81c-.32.1-1.19-.38-1.51-.28A6.17,6.17,0,0,0,90.34,341C90,340.36,90.45,340.51,90.07,339.81Z" transform="translate(-24.51 4.72)"/><path class="cls-2" d="M140.45,254.83c2.37-1.83,3.83-4.87,6.19-6.7C145,248.42,142.18,252.57,140.45,254.83Z" transform="translate(-24.51 4.72)"/><path class="cls-2" d="M146.68,247.56a5.49,5.49,0,0,0,2.55-2.82A13.82,13.82,0,0,0,146.68,247.56Z" transform="translate(-24.51 4.72)"/><path class="cls-2" d="M64.24,266.5c.2-.49,0-.62-.94,0,3.06-3,3.86-3.7,7.09-7.31a88.37,88.37,0,0,0-9.11,8.94C63.24,266.65,62.94,267.35,64.24,266.5Z" transform="translate(-24.51 4.72)"/><path class="cls-2" d="M78.51,255c-.27-.27.73-1.77-.42-1.19C77,254.91,77.42,255.53,78.51,255Z" transform="translate(-24.51 4.72)"/><path class="cls-2" d="M74.17,255.87c-.18.32.07.22.45,0l.63-.4a2.82,2.82,0,0,1,.56-.31c.56-.9.69-1.38.62-1.67a2.73,2.73,0,0,0-.87,1l-.19.29a4.94,4.94,0,0,1-.34.39A3.74,3.74,0,0,1,74.17,255.87Z" transform="translate(-24.51 4.72)"/><path class="cls-2" d="M137,190.4a3.94,3.94,0,0,0,1.51-2.35,6,6,0,0,0-1.47,1.78C137.41,189.69,137.11,190.15,137,190.4Z" transform="translate(-24.51 4.72)"/><path class="cls-2" d="M140.1,185.14a2.91,2.91,0,0,0,1.16-2.19C140.09,184.06,139.79,184.79,140.1,185.14Z" transform="translate(-24.51 4.72)"/><path class="cls-2" d="M145.43,181a69.2,69.2,0,0,0,6.88-7c-.89,0,.65-1.3,1.36-2.55C150.45,174.68,148.81,177.35,145.43,181Z" transform="translate(-24.51 4.72)"/><path class="cls-2" d="M153.24,172.77c1.2-.69,1.85-2.11,2.75-3.19A7.21,7.21,0,0,0,153.24,172.77Z" transform="translate(-24.51 4.72)"/><path class="cls-2" d="M157.07,168.53a24.75,24.75,0,0,0,3.25-3.15C159.86,165.23,157.72,167,157.07,168.53Z" transform="translate(-24.51 4.72)"/><path class="cls-2" d="M160.59,166.37a15.35,15.35,0,0,1,3-2.21c.41-1.15.93-1.7-.23-1.55C163.7,163.49,161.35,165,160.59,166.37Z" transform="translate(-24.51 4.72)"/><path class="cls-2" d="M157.9,159c0,.78,1.77-1.32,2.17-2.1a6.23,6.23,0,0,0-1.59,1C158.08,158.6,158.58,158.62,157.9,159Z" transform="translate(-24.51 4.72)"/><path class="cls-2" d="M173.47,150.54c-.23.33,0,.27.16.19l.69-.3c.36-1.2,3.49-3.52,4.61-5.71-.44.24-.58.2-.51-.05-1,1.5-2.34,2.69-3.32,4.29-1.75.82.34-1-.08-1.35-.88.28-.78,1.86-1.66,2.14C173,150.28,175.12,149.31,173.47,150.54Z" transform="translate(-24.51 4.72)"/><path class="cls-2" d="M162.62,154.12a29.1,29.1,0,0,0,4.76-5.49A49.47,49.47,0,0,0,162.62,154.12Z" transform="translate(-24.51 4.72)"/><path class="cls-2" d="M180.2,143.31c.85-.9,1.39-.2,2.63-1.48-.79.06-.74-.41.47-1.87A13.82,13.82,0,0,0,180.2,143.31Z" transform="translate(-24.51 4.72)"/><path class="cls-2" d="M181.56,140.76a16,16,0,0,0,3.48-4.09C183.06,138.32,183,139,181.56,140.76Z" transform="translate(-24.51 4.72)"/><path class="cls-2" d="M193.67,128.86c.2-.49-1,.35-.66-.25-1.83,1.72-2.86,4.5-5.11,5.65C188.81,135.34,191.62,130.2,193.67,128.86Z" transform="translate(-24.51 4.72)"/><path class="cls-2" d="M187.05,134.37c2.12-1.53,3.52-4,5.15-6.22C190,129.64,188.72,132.24,187.05,134.37Z" transform="translate(-24.51 4.72)"/><path class="cls-2" d="M190.15,128.54c.26.7,1.92-2,2.55-2.83C191.59,126.31,191.2,127.86,190.15,128.54Z" transform="translate(-24.51 4.72)"/><path class="cls-2" d="M191.7,128.11c1.63-1.35,3.4-2.52,4.37-4.77C194.9,125.31,192.85,126.12,191.7,128.11Z" transform="translate(-24.51 4.72)"/><path class="cls-2" d="M200.09,121.23c-2,1.08-.42-1.22.81-2,1-.31-.23,1.15-.81,2,1.09-.2,1.27-1.62,2.31-1.89-.21-1.38,2.59-5.87,3.92-7.87-.65-.63-3.22,4.13-3,4.7-.65-.41-2.14,1.87-1.89.59-1.53,2.61-2.62,5-4.65,8.76A10.15,10.15,0,0,0,200.09,121.23Z" transform="translate(-24.51 4.72)"/><path class="cls-2" d="M206.55,113c-.16.44.71-.1,1.19-.28a18.23,18.23,0,0,1,1.86-2.5c0-.27-.6,0-.12-.78-.6.42-1.15.94-1.77,1.37C207.18,111.83,208.26,111.88,206.55,113Z" transform="translate(-24.51 4.72)"/><path class="cls-2" d="M210.41,110.71c.79-.86,2.46-2.95.82-2C210.38,109.91,210.87,109.84,210.41,110.71Z" transform="translate(-24.51 4.72)"/><path class="cls-2" d="M211.11,107.9c-.12,1,1.25-1.14,1.93-1.16,0-.63-.37-.34.63-1.67C212.53,105.63,212,107.05,211.11,107.9Z" transform="translate(-24.51 4.72)"/><path class="cls-2" d="M187.83,355.92c-.59.16.47-1.29-.81-.46-.3.63-.84,1-1.13,1.62,2.24-2.07.49,2.7,1.75-.8,2.4-2.18,4.61-4.64,7.34-6.4.71-1.46,1.19-1.65,2-1.73.13-.35-.56.07-.3-.41.86-1.2.62.07,1.73-.8-.14-.71.47-1.19,1.24-3.32-1.12.77-1.77,2.2-2.59,3.39-1.24.21-1.77,1.38-2.51,2.25-2.48.79-4.78,3.93-6,4.42-.88,1.61,2-.58,2.43-1.11C190.2,354.1,188.52,354.35,187.83,355.92Z" transform="translate(-24.51 4.72)"/><path class="cls-2" d="M214.22,336.93a23.87,23.87,0,0,0,4.34-4.19c-1.15.75-.63-.1-1.55.43C217.18,334.5,215.21,335.4,214.22,336.93Z" transform="translate(-24.51 4.72)"/><path class="cls-2" d="M221.07,330.49c.78-.77.88-1.28-.11-.78.28-.46.79-.6,1.24-.85.84-1.22.34-1.16.81-2a30.57,30.57,0,0,0,4.72-4.91c2.76-.89,4.06-3.73,6.26-5.36.51.93-2.81,3.23-2.48,4.17,2.76-3.23,5.12-4.26,7.81-8.26a3.51,3.51,0,0,0,2.86-2.42c1.07-.26,1.09.6,0,1.92.66-.15.87-.93,1.43-1.21-.79.17.69-1.85-.77-1,2.29-1.3,3.62-3.9,5.61-5.6-2.15,2.83-3.39,4.8-3.91,5.38,1.38-.05,3.73-4.15,5.3-6,.53.41,2.29-1.56,3.21-2.57.12-.36-.56.07-.32-.41a7.76,7.76,0,0,0,.74-.89c.23.08-.08.67.66.25,2.26-2.17,4.2-4.78,6.38-7.06.25-.06.16.2.5,0-2.24,2.55-2.75,3.67-4.8,6.07,2.25-1.38,3.83-3.62,5.92-5.2.36-1-.93.69-1.39.64a7.38,7.38,0,0,1,1.12-1.62c1.48-.91,1,.47,2.25-.75.38-.67,0-.57.42-1.3-.34.17-.51.57-.73.89-.81.37-1.29-.57-1.4.64-2,1-.3-1.09.82-2-1.11,1.62,1.83-1.14,1.15.3.87-.52,1-1.94,1.86-2.51,1.1-.38-.63,1.77-1.35,2.55-.47.93,1.07-.1.61.83,1.19-.7,1.83-2.14,3.06-2.78.29.49-.84,1.36-1,2.39,1.43-.37,1.83-2.13,3.21-2.57.2-.85-1.36,1-2.09,1a19.21,19.21,0,0,1,2.52-2.25c-1.54.76-1.07-.11-1.12-.87a8.05,8.05,0,0,0,.73-.89c1.37-1-.36,1.06,1,.1.67-1.81,7.37-7.46,7.5-6.2.43-1.07,1.51-1.77,1.16-2.19,1.66-1.08.95.15,2-.39-1.43,1.21-2.47,2.94-4,4,1.16-.34,4.35-3.34,5.92-5.2.68-.31-.09.8,1,.1a9.68,9.68,0,0,1,4-4c-.25-.67,1-1.71-.22-1.56,1.14-.34,1.64-2,3.4-2.93-1.37,0,2-2.46,1.54-2.92,2.2-1.6-.67,1.71,1,.66a6.08,6.08,0,0,1,2.2-2.66c.29.14.19.65.27,1-2.58,3-5.57,5.18-7.27,7.74.93-.21,1.09-1.45,2.13-1.53,2.64-4.58,7.52-6.16,10.32-10.52,4.22-2.3,9.67-9.48,12.14-10,1.15-1,2.23-2,3.41-2.94,0-1.33,2.26-2.58,3.48-4.08.23.07-.09.68.65.25-.31-.63,1.61-2.52,1.82-1.93a25.68,25.68,0,0,1,4.36-4.47l1.17-1,.58-.51.2-.17.15-.12a5.17,5.17,0,0,0,1-1.08c-.63.09,0-.79.1-1.15.4,0-.22,1,.1,1.14a4.39,4.39,0,0,0,1.84-1.54,20.44,20.44,0,0,1,1.62-2c.31,1,1.62-.1,1.73-1.08.34.34.52-.27.82,0,.25-1.58,1.69-2,2.85-3,.53.64,1.05,1.09,1.53,1.07a3.71,3.71,0,0,0,1.9,2.41,2.79,2.79,0,0,1,1.64,2.14c-.27-.51-.69-.67-1.05-.95,0,.51.36.78.82,1.1a4.18,4.18,0,0,1,1.39,1.28c.31.51,1,2.4,1.54,1.85.41,0,.17.75.28,1.05a2.51,2.51,0,0,1,.71.42l.29.27.35.35.71.7a20.21,20.21,0,0,0,3,2.63c1.78,2.54,6.54,7.23,9.91,10.79q13.08,14.14,26.31,28.19l3.3,3.51,1.66,1.75c.35.37.37.41.47.52l.26.31,2.07,2.44,3.86,4.53-4,3.46L396,296.6l-.91.81-.45.39-.28.27-.73.69q-11.49,11.17-23,22.36-23,22.42-45.76,45.07t-45.48,45.43l-22.68,22.81L253,438.19,250,441.38l-4.64-4.45-1.19-1.14-3.57-3.52-8.45-8.34c-.53-1,.35-.5,1-.27a111.16,111.16,0,0,0,10,10.24l1.27,1.18.36.28c.24.19.46.39.68.6a5.76,5.76,0,0,1,1.17,1.51c.35-.39.4-.23.71-.13,0,.33-.14,0-.34.17.16.62.75-.12.79.89.29-.16.16-.8.42-1a3.42,3.42,0,0,0,1.78,2.76,13.15,13.15,0,0,0,.73-1.34,3.35,3.35,0,0,0,2.07-2.14.36.36,0,0,1,.21.34,6.62,6.62,0,0,1,1.74-2.08l.24-.22.53-.52c.62-.63,1.21-1.23,1.76-1.82a22.91,22.91,0,0,0,2.61-3.21c1-.47.38.29,1.39-.64.18-.4-.47,0-.84.12,6.6-5.35,10.38-11.36,17.32-16.77,0-1.19,3.59-3.62,5.07-5.08,2.48-2.46,3.68-4.84,5.26-5.44a22.57,22.57,0,0,1,6.49-6.29c1.06-1.38-1,.23.08-1.14.07-.48,2-1.34,1.39-.63,1-2,2.83-2.88,4-4.61.66-.4.5,0,.3.41,1.48-2.39,3.64-3.87,5.31-6,.8.55.2-.06,1.93-1.16-.2-.27.27-1.14,1-1.82.16.14.59,0,1.2-.27.66-2,4.12-3.57,6-6.9.6-.3.75-.15.65.24,3-3.32,10.51-10.37,10.91-11.61,1.53-1.7,3.65-2.6,4.72-4.93,1.87-1,4.78-3.35,5-4.51,10.4-9.59,19.19-19.22,30-29.17.41-.64,0-.48.24-.94,1.06-.52,1.26-.91,2.82-1.84,5.07-6.13,13.85-12.66,19.57-20,.64-.33.5.11,1.19-.27l1.81-1.95.84-.91.21-.27a3.11,3.11,0,0,1,1-.88c-.35-.17-1.37-.71-1.14-1.32.62.11.75.4,1.31.17.49.08.46.79-.13.62.26.58,1.29,0,.66-.25a2.65,2.65,0,0,0,1.68-1.18,3.2,3.2,0,0,1,1.84-1.29c-.81-.31-.11-.73,1.19-1.14l.16-.12a.77.77,0,0,0-.72,0c-.17-.84-1.37-1.65-1.64-2.64-.31,0-.47.13-.79.1a9.85,9.85,0,0,0-1.78-2.07,6,6,0,0,1-.86-1.07l-.16-.29-.06-.15a.73.73,0,0,0-.15-.25,14.39,14.39,0,0,1-1.05-1.58c-.35-.18-.09.28-.05.5-4.54-5-9.63-9.59-13.73-14.92-3.81-3.09-9-9.15-13.1-13.54-1.24-.85-.26.59-1.5-.27a4.3,4.3,0,0,1-1.05-1.08c2.12.16-2.73-3.75-3.89-5.49-1-.07,1.08,1.3,1.15,1.93,0,.82-1.5-1-2-1.31-.45-2.83-4.78-5.82-6.83-8.9-1.24-.85-.26.59-1.51-.27-.43-.3-.55-.82-1-1.08-.11-.41.78.19,1.3.42a5.16,5.16,0,0,0-2.46-2.35c-.24.12.47,1.22-.62.46.32.69,1.2,1,1.37,1.77a4.45,4.45,0,0,1-1.47-1.23l-.29-.32-.12-.09a.59.59,0,0,0-.4,0c.27-.81-.25-.85-.43-1.23.33-.58.44.68,1,.51,0-.6.13-.61.3-.44l.28.29a.79.79,0,0,0,.15.12l.08.05.18.11a.68.68,0,0,1-.14-.37l-.06-.22a1.19,1.19,0,0,0-.13-.32,1.1,1.1,0,0,0-.34-.34,1.5,1.5,0,0,1-.71-1c-.3,0-.05.69-.28.81s-.13-.23-.18-.39c-.33.14-.32.34-.13.61-.82.15-1.07-.53-1.79-.3-.11-.5-.25-.68,0-1.08-.38-.41-1.09.33-1.27-.49-.11-.49.4-.29.57-.47-.16-.69-.6-.24-.61.24-.34.18-.34-1.12-.68-.94-.05-.41.31-.39,0-1.1-.62.72-1.79-.23-1.79-1.6a.57.57,0,0,1-.11-.11c-.34.28-.71.21-1,1.43-.27-.47-.58-.13-.84.19s-.48.6-.7.13c-.08,1.14-.51,1.25-1.06,1.4a1.56,1.56,0,0,0-1.35,1.31c-.95.4-1.52,1.47-2.62,1.86-.51,0,.5-.5-.32-.39,0,.14-.09.27-.13.38s-.38.5-.57.73c-.41.5-.84,1-1.28,1.41-.89.89-1.83,1.71-2.79,2.51a36.55,36.55,0,0,0-5.45,5.19c.6-.24,1-.78,1.59-1,.33-.08-.15.62.31.41-1.7,1.49-3.69,2.56-5.34,4.1-.09.53.61-.23,1-.47.77-.1-1.28,1.1-1.31,2-.29-.19-.65,0-1.39.63-.51,2.52-4.6,3.77-6.19,6.7-1.18.67-1.38.4-.62-.82-1,.33-1.44,1.4-2.32,1.89-.15.44.72-.1,1.21-.28a8,8,0,0,1-1.87,2.52c-.56.19-.45-.27.08-1.14-1.59,2.22-3.75,3.7-5.6,5.6-.47.09.31-1-1-.1-.26,2.1-6.58,7-8,9.21-1,.1-3.06,2.32-1.7.22-1.25,1-1.13,1.4-1,1.83-1.08,1.17-2.17.41-3.36,2.37.81-.17,1.08-1,1.77-1.37-.28.45-.27.62,0,.57-2.74,2.59-5.88,4.61-8,8.06-.36-.63-.53-.34-1.85,0-.6,1.11.74.34,1.5.14-.81,2.23-3.26,2.29-4.17,4.39-1.95,1.23.1-1.41-1.12-.86-.71,1.32.12,1.18,0,1.91-.75,1.37-1.37.65-1.78,1.37-.41.1.2-.78.43-1.31-1.06.78-2.31,2.51-1.51,2.35-2.42,1.16-1.91,1.74-3.86,2.32-1.47,2.12-1.75,2.13-3.8,3.68,0,.49,1.17-.19.08,1.34l1.74-.8c1-.94.06-1,1.62-1.57.46-.68.1-.56-.3-.41,1.7-1.59,6.74-6.88,6.57-4.94.71-.28.84-1.37,1.31-2,1.25-.49.76.57-.12,1.71.66-.42,3.38-3.15,1.86-2.51,1.05-1.29,2.56-2,3.29-3.71.67-.24-.76,1.56-.28,1.51,1.26-.51,3.42-4,3.37-2.37.87-.43.72-1.25.23-.94a14,14,0,0,1,3.21-2.57c.13-.42-.31-.29-.12-.78.5-.79,1.32-1.14,1.82-1.93.18.11.18.42.12.77a44,44,0,0,1,6.88-7c.85-.32-.81.85-.77,1.46,1-.49,1.49-1.73,2.67-2.05a8,8,0,0,1-3.41,2.94c-.16,1.65-3.82,3.47-5.1,5.65,3.79-3.21,6.78-6.53,9.89-9.22.36-1-.92.69-1.38.63,1.29-2.25,2.45-.85,3.74-3.09-.61.42-1.16.94-1.77,1.36.31-1.24,1.53-1.26,1.85-2.5.83-.51.39.21.12.77.48-.4.8-1,1.43-1.21-.09-1.12,4.89-5.24,7.23-7.17.86,0-1.39,1-1.47,1.77a133.11,133.11,0,0,1,11.17-10.63c.42-.1-.19.78-.42,1.29,1.55-.61,1.87-2.14,1.51-2.34,1.52-1.68.46.6,2.24-.75,1.32-1.69-1.44.56-.81-.46,2.28-2.15,4.06-5,6.84-6.44.27-1.51,1.53-2.15,2.79-3.76,1.14-.76.63.1,1.54-.43a15.43,15.43,0,0,1,1.11-1.48l.15-.18c.05-.06.11-.12.1-.12l.06-.1.15-.18a5.19,5.19,0,0,1,.68-.56c.37.31-.17.57-.25.73.6.16.83-.52.94-1.34.4.06.24.6.62.67,0,.54-.39.45-.1.94.73-.56,1-1.24,1.49-2.65.41.17,0,1.06.33,1.29.49-.5,1.06-1.19,1.52-.66l.06.21c.27-.86.42.3.51.62.13-.22,0-.74.2-.86a1.37,1.37,0,0,0,.71,1.11.78.78,0,0,1,.33,1,4.3,4.3,0,0,1,.72,1.13c.22.39.43.67.86.62l0,.07a.85.85,0,0,0,.1.18,4,4,0,0,0,.24.38,8.73,8.73,0,0,0,.54.7c.38.46.79.88,1.2,1.32a9.14,9.14,0,0,1,2.06,2.89c1.72.74,2.33,2.3,4.13,3,.75,1.14-.11.63.43,1.55,6.09,6.32,12.46,12.45,17.92,19.25.42,0,1.32.45.25-.65a159.86,159.86,0,0,0,15,15.85c1.49,1.07,1.95,2.9,3.26,4.1.36.12-.07-.56.41-.31l.13.17c0,.05.1.12.08.12l0,.06,0,.13a.54.54,0,0,0,0,.22c0,.12.14.17.47.13a5.17,5.17,0,0,1-.62.52c.4,0,.62.23.66.41a.46.46,0,0,1-.27.5l-.26.07c.16,0,.35,0,.5,0a5.06,5.06,0,0,0-1.3.54l-.18.12-.09.05h0l-.23.22-.89.87q-3.58,3.48-7.23,6.86c-1,2.05-8,7.85-12.11,11.9-2.24,2.19-3.69,4.28-5.76,5.39l-.78,1.46c-1.68.33-3.29,3.69-5.72,4.83-4,5.11-11.2,10.65-16.12,16.49l-1.4.64c-6.38,7.48-14,13.36-20.3,20.89-3.53,2.34-5.83,6.35-9.36,8.7-1.35,2.36-3.69,3.38-5.1,5.65a163.31,163.31,0,0,0-15,14.88c-11.29,10.7-21.82,22.39-33.1,33.1l-.78,1.46c-.39.57-.62.31-.5,0q-2.1,2.29-4,4.29a.42.42,0,0,1,0,.16c0,.12,0,.24-.07.56-.07-.19-.13-.37-.19-.57,0,.09.24,1.08.07.59-.06-.29,0-.14-.06-.45s-.05,0,0,.45l-.17.14a2.33,2.33,0,0,0-.5-.39l-.15-.09-.08,0,0,0h0l-.11-.11-.25-.24-1-.95-7.79-7.59q-15.57-15.15-31.22-30.1c-20.85-20-41.76-39.89-62.66-60.31l-1.1-.58c-5.55-6.11-12.43-11.22-17.7-17.56-1.15-.93-2.68-1.26-2.3-2a18,18,0,0,1-4.92-4.73l-1.46-.77a45.61,45.61,0,0,0-6.33-6c-1-1.13-2.07-2.24-3.14-3.33l-1-1-.27-.26c-.38-.34-.8-.66-1.25-1a7.65,7.65,0,0,1-2.25-2.21,7.93,7.93,0,0,1,1.09-.58,4.41,4.41,0,0,1-.43-.25c1.06-.18,1.24-.62.79-1,.33,0,.5.11.83.1-.88-.46-.08-.42.31-.41a.9.9,0,0,1,.19-1,3.39,3.39,0,0,1,.42-.43l.23-.21.12-.11.53-.52c.61-.29.76-.14.66.25.9-.71.32-1.59,2.21-2.66.17-.36-.28-.09-.51-.05.67-1,1.76-1.39,2.21-2.67.66-.4.5,0,.3.42a27,27,0,0,1,3.87-4.81c1.17-.24-.67,1.14-1.16,2.18,2.85-3.68,5.9-7.1,8.82-10.66l1.75-.8c.11.7.55-1-.85.11,1.05-1.95,2.52-3.18,4.25-5.53.72.06,2.5-2,1.55-.43,1-.76.4-1.46,2.7-2.63.91-1.62-.92.35-1.39.64,1.48-2.39,3.73-3.75,5.15-6.22.37-.12-.06.54-.23.94.62-.41.9-1.29,1.77-1.37-1-.05.76-1.15,1.36-2.55,5.29-3.88,8.73-11.05,13.76-14,.11-1.73,3.12-4.43,4.65-6.27.47.67-2.18,2.46-2.78,3.76.59-.24,1-.78,1.58-1-1.31,1.78-2.38,3.89-3.76,5.58-.74-1.13-4,4-4.72,4.92a46,46,0,0,0,10.41-11.66c.41-.11-.19.77-.43,1.29,1.56-1.76,5-5.18,4.3-6.1.86-1.2,1-.29,1.74-.8,2.53-3.65,4.47-5.58,7.23-9.66,4.12-4.07,8.21-8.17,11.53-13.29a36.42,36.42,0,0,0,7-8.72c5.56-4.79,12.34-16.09,20.35-21.47-2.76.46,3.39-4.65,2-5.36,1.51-1.32,2-3.94,4-4.6a71.94,71.94,0,0,1,16.67-17c.46-1,1-2.12.31-2.07a7.27,7.27,0,0,1,3-2.21c.46-1.28,1.43-1.84,2.21-2.67-.1-.88.72-1.55.85-2.59-.74.25-.94,1.22-1.62,1.57a57.48,57.48,0,0,1,13.88-13.26c-.1-1.22,1.3-2.9,3.18-4.49,2.07-4.73,5.74-9.82,9.6-14.61l2.09-1c-1-.16,2-2.82,2.82-4.33.22,0,.46,0,.31.42,3.61-4.11,7.1-7.84,9.4-11.76,3.87-4.24,9-10,11.26-14.27,2.84-2.64,6.9-8.81,8.71-11.44a108.34,108.34,0,0,0,7.74-12.1c-1,1-1.33.69-2.08,1,.47-1,1.38-1.48,1.86-2.51-1.49,1.12-1.74,2-2.87,2.42-.72,2-3.83,3.29-3.67,4.44-.47.82-1.56.83-2.28,1.32-1.58,1.84-3.23,3.59-4.91,5.28,1.14-2,1.83-2.75,3.25-5.63-6.13,6.57-14.65,15.35-20.85,23.91a7.4,7.4,0,0,1-2.32,1.89c.07.22.34.26.65.25A28.92,28.92,0,0,0,273,87c-1.94.28-3.77,4.75-4.69,6.83-1.06.44-.17-1,.32-2.08-.65.86-2,1.72-2.28,1.32,1-1.73,1.54-1.61,1.89-3.07-.85.31-.75,1.9-1.81,1.94-.84,1.16,0,.72-.62,1.66a4.34,4.34,0,0,1-1.09,1c-.27-.33.63-1.79.32-2.08a8.05,8.05,0,0,0,.73-.89c-.1,1.2,1.79-1.51,2.71-2.61.65-.34.5.1,1.2-.28,2.1-2.63,1.67-4,3.64-6.36.52.15-1.22,2.48-1.59,3.49,1-.95,2.84-3.16,1.89-3.08,2.86-2.21,4.79-5.65,7-8.73-1.85,1.27-2.86,3.67-4.26,5.54.16-1.88,3.14-5.36,5.34-6.58,1.65-2.58,3.35-5.1,5.69-6.75,5.3-7.67,11.95-13.55,17.45-21-1.81.91-3,2.68-4.95,3.37a14.86,14.86,0,0,1-4.83,4.14c-.42.64,0,.48-.24.94-1.68.45-2.35,2.26-3.74,3.09-.74.3-.26-.57.27-1.5-1.75,1-2.81,2.9-4.33,4.19-1.29.83.16-1-.81-.46-2.34,1.77-2.84,3.63-5.15,6.22-1.15.15,1.27-3,2-4.21a5.56,5.56,0,0,1-1.59,1c-.18.35.28.08.51,0-.87,1.31-1.84,1.5-1.86,2.51-.65.33-.5-.12-1.2.27a34,34,0,0,1-5.26,5.45c-.45.9-.24,1.18.62.82a6.85,6.85,0,0,1-1.32,2,3.87,3.87,0,0,1-2-.19c2.06-2.25,4.64-6.2,4.57-7.61a90.7,90.7,0,0,1,9.78-10c-1.5,0,1.19-2.14,2.59-3.4.74,0-1.42,1.36-1.66,2.14,1.77-.95,2.53-3.26,3.87-4.8,1.24-.74-.22,1.09,1.19-.27-.24-1,3.43-4.64,5.5-6.39,1.07-2.18,3.18-3.74,5.14-6.21-.37-.86-2.06,1.77-2.86,2.41,1.51-2.21,5.41-7.43,9.29-10,1.55-3,10-9.88,9.09-12.17,2.17-1.72,2.16-3.31,4-4.6.32.3-.86,1.27-.27,1.5,3.71-4.91,7.07-10.09,6.2-11.67-1.27.7-3.33,2.18-3.28,1.23-2.69,1.83-6.2,5.56-7.93,5-.6,1.6-2.76,3.33-2.48,4.18.44-.25.65-.8.93-1.26.85-.14.1.37-.42,1.3a5.16,5.16,0,0,0-2.47,1.69c-1,.53-.88,0-.28-1-.74.61-1.31,1.34-1.12,1.61-2.27,1-5.52,5.33-7.81,8.28-3.75,2.06-5.78,6.39-8.28,10.14l-.7.32c.36-2.27,3.31-5.27,4.23-7.46-.76.24-1.11,1-1.94,1.16-3.65,5.61-6.81,8-10.67,13.17-.25.06-.16-.21-.51,0a24.14,24.14,0,0,0,4-6c-1,.4-1.4,1.47-2.32,1.89.67.1,0,.9-1.13,1.62.46,0,.66.31.62.82-1.76,1.32-4.95,5.14-3.57,5.23-.39.95-.8-.33-1.58,1-.33,0,.9-1.25.08-1.14-1.14,1-1.45,2.69-.85,2.6-.61.85-1,.07-1.9.59-1.19,1.69,0,1.08-.66,2.23-.51.91-1.18.6-.85.11-1.28.93-.49,1.28-.62,1.67-.36.29-1.67,1.12-2.08,1,.34-1,1.06-1.49,1.51-2.35-1.89,1.23-2,2.63-1.55,2.92-1.82,2-3.5,3.7-4.11,5.75-1.62,1.09-.27-.68-1.15-.3.95-1.23,2-2.36,2.93-3.55-1.36.61-1.66.19-.92-1.24-.86.47-1.31,1.34-1.12,1.62-.53-.34-1.31,1.22-2.08.95-1,2-2.42,3.32-4.41,5.34-.63.09,1-1.92,1.81-1.94.23-.34,0-.28-.15-.21l.39-.72c-1.36.68-2.15,2.11-3.1,3.34-.86.13-.59-.84-1.46-.71-.22,1-.41.82-1.17,2.19-1.19.75-1.07.21-1.89.59-.55.83-.27.86-.42,1.3-.92.54-.41-.32-1.55.43a50,50,0,0,1-4.71,4.92c-1.08.26.42-.87.81-2-1,.51-1.36,1.93-2.52,2.25.15.16-.32.9.12.77-4.24,3.49-7.44,8.36-11.6,11.94-.18.4.47,0,.85-.11a8.71,8.71,0,0,1-1.51,2.35c-2.35-.53-4.92,5.59-7.43,7.54-.49-2.07,2.73-4.53,4.38-7.25-1.42.83-2.21,2.87-3.21,2.57l-1.17,2.19c-.8.49-.78.17-1.19.27.73-.68,1.1-1.85,2-2.3-.76,0,.47-.91.27-1.5-1.86.42-1.74,3.49-3.63,3.87-.76,1.73-1.57,3.53-2.21,5.15-1.3.79-.95,0-.62-.82-1.29.36-1.89,1.61-2.86,2.41.4.09.36.6-.47,1.88.63-.41.91-1.29,1.78-1.37a7.77,7.77,0,0,1-2.7,2.62L218,103.94c-.91-.16.12-1-1.74.8-1.5,1,.18-1.12-1.15-.3.41,1.32-1.32,2.5-2.37,5-1.74,1.41-3.36,3-5.18,4.3-.46,2.15-1.88,3.87-3.29,6.2-1.45.93.48-1.41-.08-1.35a21.09,21.09,0,0,0-4.26,8c2.72-2.25,2.38-4.29,3.79-6.15.61-.3.76-.14.66.25.85-.5,1.4-2.16.62-1.67,2.92-1.46,5.3-8.07,9.28-10-.89,3-4.95,7.08-7.73,9.61-.55,3-4.45,6.66-7.78,10.19.46-1.55.64-2.52.24-3.42-.4,1.14-1.26,1.63-1.71,2.71-3.3,1.32-2.83,3.84-5.91,5.19-2.12,2.94-1.41,2-3.52,4.65.87-.55.12.47.65.25a12.87,12.87,0,0,0-1.86,2.51c-1.53.83-.21-.87.62-1.66-.63-.19-3.23,3.4-2.78,3.76-1.11,1-1.87,2.48-3.41,2.93-1.56,1.44-2.28,4-4,5.18-1.47.41-.3-1.73,0-3.06-1.89,2-2,3.6-4.8,6.06-1.28.56-.83,0-1.93,1.16-.59,1.24,1.78-1.5,1.2-.27a13.74,13.74,0,0,0,2.35-2.46c.82.12.54.3,1.94-1.16.38-.13-.06.53-.24.93-.58.89-1.85.86-2.47,1.69.14.16-.33.9.12.77a27.83,27.83,0,0,1-2.71,2.62c-.62.13-.44-.23.23-.93.44-.61.37-.06,1-.48-.11-.42.05-1.1-1-.66-2.36,5.16-6,8.64-9,12.94-.51.26-1,.52-.85.12,0,.6-2.34,3.88-4.1,5.74-.67-.27,2-3.39,1.59-3.49,1.11-.31,1.59-1.2.2-.37a83.3,83.3,0,0,1-7.51,8.69c-1.45.21,2.45-3.21,1.78-3.85-1,1.05-1.54,1.18-1.67,2.14-4,3-9,10.72-12.45,14.53-1,.52,1.68-2.57-.07-1.35,0,1-1.23,2.52-2.29,3.82a12.23,12.23,0,0,0,2.52-2.26c.24-.06.15.21.49.05-1.33,1.95-3.5,2.79-4.56,5.12-.65.33-.49-.11-1.19.27-.91,1.72-2.4,2.62-3.49,4.08-.6.29-.76.15-.66-.25-.74.46-1,1.54-2,1.73-.45.68-.09.57.31.41-5,4.81-8.21,8.28-12.88,13.35-.56.2-.46-.26.09-1.14-.85.75-1.48,1.78-2.37,2.47-1.09,1.53,1,0,.08,1.34a9.2,9.2,0,0,0-3.63,3.87c-.93.54-.41-.31-1.55.44-.29.69.56.28.26,1-2,.91-1.18,1.26-3.09,3.35-.92.53-.4-.32-1.55.43-.08.38,0,.54.66.25-1.45,2-5.67,4.92-6.18,4.21-2.22,2.86,2.52-1.42,1.46.71-.93.9-.87.36-2.27,1.32-.94,1.61-2.75,2.71-2.64,4-1.17,1.17-2.45,2.55-3.36,2.37l-1,1.83c1.43-.45,0-.76,1.43-1.21-.11,1.44-4.5,4.82-6.42,7.63,0-.76-.47-.85.65-2.23-2.31,1.3-1.54,2.89-3.36,4.85-1.75.58-2.57,2.39-3.63,3.88a7.49,7.49,0,0,0-1.36.83,4.91,4.91,0,0,0-.43.37l-.47.43c-.31.28-.61.58-.91.89-1.2,1.21-2.33,2.52-3.47,3.79-1,.21,2.09-2.35,2.6-3.45-1.12.57.72-1.77-.22-1.39-1.9,3-5.24,6.45-6.66,9-.89.54-1.74,1.69-3.63,3.2-1.61.54,5-5.2.94-2.34.92-1.64,2.73-2.49,3.69-4.16-1.79.92-4.63,5.21-5.17,4.54-1,1.67-2.81,3.15-4.7,5.67-.9-.57-2.54,2.5-5.49,4.49-1.92,3-4.77,5.47-6.92,8.21.6.14,3.22-1.92,4.07-3.29.78.47-3.57,4.07-5.22,5.65-.91.35-.25-.87.27-1.5-.82.23-2.11,1.49-3,1.5,1,.24-.71,1.56-2.18,3.22a22.63,22.63,0,0,0,2.29,1.8c0-.56-.76-1.18-1.44-1.8a5.27,5.27,0,0,1,1.4-1.16c-.37.39-.7.77-1,1.16a11.23,11.23,0,0,1,2.92,3.14c.06.42-.89-.73-1.86-1.34.26.62,1.65,1.85.69,1.26,1.06,1.62,1.76.59,2.33,2.19.15-.46-.06-1.29,1.87.08,2,2.05-.47.12.58,1.68,1.55,1.16,1.51.69,1.69.44a13.32,13.32,0,0,0,2.26,2.12c1.47,2.31-2.75-1.21-1.86.49.92.45,2.09,1.17,2.24.83,2.16,1.37,2.1,2.92,4.54,4.27,1.22,1.66.36,1.21,1,2.3a35.68,35.68,0,0,1,5.72,5.66c2,.74,4.86,4,7.07,6.3.94,1.33-2.69-2-.76.32a17.4,17.4,0,0,1,3.57,2.9L75.4,326l1,1,.67.66c1.31.93,0-.88,1-.26,1.64,1.47-.3.77.75,2.24.72.69,1.1.89,1.46.77,1.49,3.55,5.88,4.94,7.86,8.13,1.55.36,2,1,4.17,2.47.49.47.42,1.14,1.52,2.13-.2.71-1.83-1.39-2.71-1.71a12,12,0,0,0,4.44,3.68c1.15,1.49.32,1.06.75,2.24,1.19.95,1.52,1.82,2.51,1.86l.64,1.39c.06-.92,3.08,1.76,3.51,3.44,1.53.24,2,1.26,3.19,2.75,1.42.8,0-.22-.12-.85.89.42,1.24,1.25,1.94,1.81.56,1.44-.15.72-.82.62a10.49,10.49,0,0,1,2.68,4.06,2,2,0,0,1-.89-.74c-.2.49,2.44,2.83,3.47,3.94-2.49-3.06-1.37-3.11-3.85-6,3.31,1.83,2.25,3.4,4.3,5.19.36-.43-1.18-2.82-.5-2.9.34,1,2.22,2.83,2.32,3.86,1.15.4,1.59.06,2.65.36-1,.28.37,1.6,1.07,2.93.26.76-1.63-.71-.82.62.77.21,1,.46,1.35-.07.71.69,1.33,2,1.25.93a13.36,13.36,0,0,1,1.84,2.81c-.26.3-2.44-2.43-2.55-1.35,1.76,1.15,8.94,6.9,6.65,6.69.75.84,2,1.28,2.46,2.36,2,.35,4.12,3.83,7,5-.17,1,1.86,2.32.75,2.23.74,1.05,1.18.27,2.55,1.35,2,2.11,3.7,4.4,6.33,6-.32.69,1.58,2.33,2.1,2.17.24,1.21,1.39,1.76,1.84,2.82.08-.52-.32-.94-.22-1.7a7.56,7.56,0,0,1,2,3.17c1.3,1.5,1.29.24,2.62,2.7.27,0,0-.6.78-.11a14.47,14.47,0,0,1-3.1-3.75c1.91,2,3.78,4,5.76,5.95.06.25-.2.16,0,.51-1.08-.76-2.33-2.79-3-2.4,1.07,1.67,3.06,2.24,4.34,4.67a2.78,2.78,0,0,1,1.26.93c.38.09.55,0,.25-.65,1.5.9,2.26,2.36,3.71,3.29.76,1.14-.1.62.44,1.54,1.26.84-.08-1,1.3.43.73,1.24-1.1-.22.27,1.19.89.63.21-.38.77-.11,2.93,5.17,9,9.23,11.8,13.11.24.61-1.13-.44-1.14-.08,1.29,1.68,3.71,2.51,4.35,4.68.38.08.55-.05.26-.66.89.26,1.16,1,2,1.32.51.83-.22.38-.78.11.51,1,1.63,1.59,2.26,2.52.4.17,0-.47-.12-.85.88.27,1,1.08,1.78,1.47-.08.22-.67-.09-.25.65l1.46.78c.53.92-.32.4.43,1.54,2.71,2.49,5.41,5,7.9,7.62l-.47-1c.68.73,1.86,1.1,2.3,2s-.22.39-.78.12a27.1,27.1,0,0,0,5.5,4.76c0,.76.53,1.48,1.88,2.31-1-1.7.25-.47,1.15.09-2.61-2.31-3.07-3.84-5.93-6.31-.46-.13.18.33.32.7-1-.2-.79-1.28-1.78-1.48a12.48,12.48,0,0,0-1.27-2.78c2.65,3.5,7.66,7.08,9.22,9.9.27.09.21-.15.58,0,1.21.88-.61.07.26,1.2,2.43,1,3.5,3,4.93,4.72a2.51,2.51,0,0,1,1.52.74,9.08,9.08,0,0,1,.76.76l1,1.14c-.25-.08-.56-.21-.88-.35a3.06,3.06,0,0,0-.66-.13c-.38,0-.63.08-.46.62-.9-.7-2.08-2.19-2.51-1.86,1.08,1,1,1.09,1.16,1.93a2.68,2.68,0,0,1,1.14.45c.12.07.41.3.62.43a1.76,1.76,0,0,0,.61.27c1.62,1.37,2.71,3.17,4.6,4.33,1.1,2.44,5.47,6.15,8.79,9-.34.76,1.31,2.34,3.9,4.17.24.54.12.73-.78.1,2.82,3.38,6.21,5.6,9.07,8.89.88.54-1-1.72.28-.8,1,.51,1.55,2.5,2.65,2.7.72,1,.69,1.31.25,1.16,1.41,1.59.07-.92,2.34,1.84,1.07,1.45,1.45,2.2.7,1.8a45,45,0,0,1,3.81,3.74,17,17,0,0,0,3.49-4c1.24-.86.09.63,1.74-.63,0-1.14,2.37-2.51,2.28-2.42,3.23-3.34,4.1-5.62,7.72-8.1.47-1.52,4.26-4.75,6.24-6.84.22.08-.48,1.06.61.29,1.14-2.29,3.63-3.62,5.63-6.77.47-1.21-2.57,1.57-3.27,2.67-.83.67,1.82-2.62,2.49-3.16.58-1.43-2,1.8-2.73,2.32-.52.21.6-1.19,1.11-2s2.83-1.67,4.34-4.26c1.27-.83,2.49-1.6,1.72-.43,1.84-1.17,3.15-3.41,5.08-4.44,0-.51-.54-.56.62-1.67a3.37,3.37,0,0,1-.28,1.19l-.15.36a2.37,2.37,0,0,1-.23.43c-.26.38-.53.78-.83,1.2-1.2,1.67-2.75,3.62-4.34,5.56,1.55-1.41,3.21-2.64,4.84-4,.27-.45.38-.83.63-1.23a3.85,3.85,0,0,1,.52-.64l.19-.17.13-.1a3,3,0,0,1,.36-.19c.14-.43-.3-.3-.11-.78,1-1.44.88-.43,2.27-1.31-.89-.62,3.78-5.38,5.07-5.09-.4-.49,1.15-1.11,1.51-2.34-1.17.5-1.68,1.9-2.86,2.4-.27-.39,2.32-2.27,3.25-3.13-.07-.29.06-.77.62-1.67s.88-.3.31.41c1.07-.77.58-1.49-.27-1-.52.76-1.34,1.11-1.66,2.14-.42.05-.6-.13-1-.09,1-1.52,2.78-2.12,3.79-3.67.6.11-1,2.93.93,1.24-.77-.22.15-.65,1-1.83.64.43-.7,1.15,1.54-.43-.2-.49-.21-.72.82-2,1.06.31,1.8-2.23,3.55-2.73-3.17,3.28-5.21,6.37-9.24,9.48,1.89-.64-2.23,2.71-1.05,3,.6-.24,1-.78,1.58-1,0-1.14,2.64-2.88,3.41-2.94-1.25.19.83-1.75-.58-1.39.75-.67,1.21-1.71,2.17-2.1.81-.21-2.2,2.08.11.78-.2,1-1.28.79-1.47,1.78.65-.33.49.11,1.19-.28,1-2.18,1.91-2.11,2.68-2.05-.65-.86,3.24-3.66,4.75-5.49.26-.92-.3-.17-1.19.28,1.25-2.42,4.74-4.71,5.14-6.22,1.29-.84.22.61.81.45a47.46,47.46,0,0,1-4.33,4.19c-.28.75-.07,1,.62.82a1.9,1.9,0,0,1,1.08-1c0-.26,0-.51-.31-.42,2-.87,5.55-5.41,6-6.9.16,1.65,2.36-1.42,3.64-1.38a3.66,3.66,0,0,1,1.27-1.42c.07-1-1.3,1.09-1.93,1.16-.8,0,.54-1.75,1.44-3.69,1.69-.66-.69,1.68-.32,2.08,1.67-.94,1-1.09,2.21-2.67-.65.22-.54-.31-.81-.46.51-.77,1.5-.9,1.82-1.94-1.49.73-2,2.72-3.75,3.1a18.46,18.46,0,0,1-3.53,4.65c-.67.23,1.1-1.35,1.47-1.77.22-.85-1.7,1-1.08,1.05-2-1.57,7.45-7.82,11.14-12.56-.5.25-1,.51-.84.11-.86.31-1,1.55-2,1.73-.38-.14,1.46-2.58,2.56-2.82-.95.07.84-2.78,2.24-3.24.41-.21-1.26,2-2,2.3.85.22-.11,1.14,0,1.92,1.37-.92,1.13-.43,2.63-1.48-1.75,2.09-3.21,2.8-4.95,5.86,1.53-.65.29.56,2.24-.76-.31-.29-1.6.37-.23-1.54,1.79-1.77,3.76-3.3,5.41-5.25-.84.47-1.26.52-1-.09a31.48,31.48,0,0,0-2.51,2.25c-.17-.33.72-1.52,1.16-2.19.66-.39.5,0,.31.42,1.77-1.25-.07-1,1.86-2.51.34.2-.08,1.14.41,1.19,1.3-2.59,5.56-5.42,7-8.16.58-.15.08.76,1.35-.06.81-1.2,2-1.89,2.6-3.4-.88.49-1.31.55-1.56.43,1.09-1.46,2.49-2.5,3.49-4.08.94-.2,0,2-1.7,2.71.86-.29.07,1,1,.67.54-1.78,2-2.71,3.91-5.38-1,.19-1.12,1.42-2,1.73-.35-.54,1.53-1.62,2.05-2.87.65-.33.49.11,1.2-.27-.28-1.66,3.18-3.05,4.21-5,1.37,0-1.64,2.54-1.39,3.12.34-.16.51-.57.73-.88,1.37-1-.36,1.05,1,.09.71-1.24,2.44-2.33,1.51-2.35.56-1.33,1.95-1.54,2.7-2.62.43.05.25.9-.77,1.46.77.48,3-3.94,4.1-3.26l1.16-2.19c-.81.49-.79.17-1.2.28.85-1.26,1.18-.91,1.93-1.16,1-2.41,3.26-3.24,6.46-5.72,1.14-2.11,5.33-4.72,7.42-7.54-.34-.51-1.23,1-2.12,1.52,0-.9,2.74-3.39,4-4.6.86.05-1.7,1.65-1,1.82,1-.59,1.8-1.09,2.08-.95.49-.83,1.18-2.59,1.78-3.86,1.12-1.34,1.37-.39,2.44-1.11.7-.56,2.26-3.15,2.51-2.25a30.41,30.41,0,0,1,6-6.33c1.48-.91-.53,1.56,1,.66,1.32-1.81-.94-.16.12-1.72s1.72-.76,2.78-1.27c.56-.91,1.51-1.31,2.17-2.1,0,.47.46.5,1.69-.22a1,1,0,0,1,.59-1.09c.41-.9-.87.77-1.39.63.44-1.06,1.41-1.42,2.16-2.09.36-.82-1.31.62-1.59,1-.28-.14-.17-.66-.27-1,1-1,1.35-.69,1.48-1.78,1.53-.69,0,.63.27,1,1.33-.81.81-1.2,1-1.82,1.14-1.39,2.6-2.37,3.8-3.67.32.22-.32,1.37-.13,1.71,1.33-1,3.09-1.31,4.25-3.05,1.56-.43,2.07-.34,4.57-2.64-.88.49-1.82,1.37-2.09,1a9.24,9.24,0,0,1,2.36-2.46c.38-.73-.7,0,.08-1.14-1,1.05-3.43,2.44-3.25,3.14-.34-.08-.81,0-.27-1,.89-1,1.1-.07,1.82-1.94,1.36-1-.36,1.06,1,.1-.7-.4.8-1.81,2.21-2.67.37-1-.73-.13-1.39.64.3-.64.83-1,1.12-1.62.5-.07,2.28-1.38,1.89-.59.52-.41,1.88-2.81,2-1.73,1-.68.66-2.22,2.25-3.24.41-.1-.2.78-.43,1.3.35-.31.8-.66,1.27-1l.18-.14.09-.07.15-.13.62-.54,1.2-1.07c1.57-1.41,2.9-2.74,3.09-3.47.62-.77,4.18-4,2.24-1.5,4.21-4.27,9.11-10.23,9.12-12.33a38.71,38.71,0,0,0,3.15-3.27c2.27-1.64-.87,2,2.12-.3-1.78,2.45-2.12,2.31-3.8,3.73-1.86,2.41-2,3.13.11,1.67.35-.53-.44.07-.81.26a18.78,18.78,0,0,1,4.24-4.35c1.46-.93-1.45,1.49-1.48,2.18,1.77-1,2.28-2.74,4.14-3.72-.33-1.4,5.83-6.24,10.12-9.58,1.09-1.72,1.32-3.17-2,.05,1.55-.61-.72,1.31-2.63,2.94-.74.41.55-.87,1.31-1.47-1.43.61-5.92,5.61-8.56,7.87,4-4.6,9.7-10.24,15.61-16.05-4.12-4.2-8.34-8.48-12.4-12.29-.23-.49.91.44,1.62.92a14.48,14.48,0,0,0-4.05-3.76c.29-.88-1.74-1.93-3.08-3.87-1-1.49,3.84,3.06,1.59.34-2.75-1.6-3.11-2.66-6.36-6.29a15.51,15.51,0,0,1-6-5.74c-2.19-1.39-3.35-3.16-5.49-4.5a21.76,21.76,0,0,0-1.59-2.36c-.31-.42-.65-.84-1-1.28l-.55-.66a1.69,1.69,0,0,1-.19-.24l-.16-.19a41.61,41.61,0,0,0-2.94-3.27,82,82,0,0,1-6.79-7.44c-.32.47-1.89-.47-1.78-1.47-1.29-.92-1.24-.43-1.51-.28a4.26,4.26,0,0,1-1-1.08c.43-.11.42-.67,1.71.12-1.11-1.87-1.22.27-2.3-2-1.13.14-1.33-.54-2.87-2-.29-.73.58-.26,1.5.27-3.05-2.16-6.42-6.49-9.45-7.39-1.47-1.1-1.14-1.37-1.89-2.32-.42-1,1.28.22.66-1-1.22-.77-1.29-.35-1.34.08-1.18-1.41-1.17-.81-2.51-1.86-.24-1.21,2.13,0,3.33,1.25-.39-.68,0-.53.2-.16a16.25,16.25,0,0,0-7-7.39c-.68-1.19,1.75.84.82-.61-1.49-.51-3.44-3.69-5.24-5.41-.67-.4-.57,0-1.3-.43.08-.23.68.08.26-.65-1-1-.45-.22-1.46-.78-.09-.33.62.15.41-.31-.71-1.49-2.22-2.4-2.51-1.86a1.76,1.76,0,0,0-.68-.89c-.13-.37.53.06.93.23-.61-.63-1.25-1.39-1.92-2.19l-4-4.41a49.28,49.28,0,0,0-7.24-6.84c-4.14-5.2-3.53-3.26-5.91-6.37-3.17-1.8-4.65-3.54-8.31-6.47,1,1.5,2.22,2.54,3.29,3.89-1.72-1.1-2.86-3.23-4.51-4.4-.43-.68.63.15,1.22.51-3.12-3.25-6.09-7-9.29-10.34-.45-.71.61.13,1.19.48a33.36,33.36,0,0,0-4.63-4.53c-.59,0-1.89-1.16-3.57-2.89-1.92,1.85-4.35,4-6.76,6.18a65.36,65.36,0,0,0-6.53,6.67l13.29-12.45,4.32,4.7a39.65,39.65,0,0,1-4.32-4.29l-1.7,1.55c-.52,1,.58-.09,1.7-1.22a17.43,17.43,0,0,1,1.73,1.86l-1.73-1.17L339.43,165c-.91.59-.36-.24-1.38.45-4.22,4.62-4,6.09-9,10.24-.45-.18,3.24-3.94,4.47-5.64-.14-.29-1.36.49-.45-.82-.51.63-1.4,2.13-2.64,3.83a25.37,25.37,0,0,1-4.87,5.16c-.77.4-.32-.4.95-2-2.15,1.48-3.8,5.28-6.92,7.88-2.15,1.64,1.28-2.22-1.19-.26-.51.62-.25.48.05.3.18.32-2.69,2.73-1.86,2.9-.9.74-4.32,3.86-3.38,3.86-1.18,1-2.25,2.51-3.52,3.28-.3-.36,3.06-4.31,2.07-4-1.21,1.41-2.94,3.4-4.35,5.18-1.53,1.14-.37-.36-2.34,1.22-1.5,1.6-3,3.1-4.58,4.59l-1.17,1.12-.77.72-1.23,1.16c-.75.3.94-1.12,1-1.83-2.32,1.71-1.69,3.54-4.37,4.76-.47.62-.59,1.7-1.32,2-.41.9.87-.77,1.39-.63l-.58,1.09c-1.91,1.18-3.23,3.16-5.18,4.3-.46-.45,1.71-2.67,2.9-3a10.18,10.18,0,0,1,1.86-2.51c-.85.89-3.55,2.19-4.34,4.2-1.33.75-.16-.91-1.5-.15-.47,1.73-3.73,4.78-6.23,7.27-.91.24.75-.93.78-1.45-1.15,1.12-.89.26-2.09,1-1.21,1.7-2.86,2.82-4,4.6-2.48,1.31-1.85,2-4.26,5.54a25.41,25.41,0,0,1,3.44-3.51c.46-.68.1-.56-.3-.41a8.28,8.28,0,0,1,2.16-2.1c.77-.43-.63,1.09-.93,1.26.62,0,4-1.7,4.8-3.58,1.35-.25,4.33-3.22,5.92-5.19.86-.33.73.23,1.42-1.21a36.69,36.69,0,0,0,8.78-7.6c.64.6,3.08-2.72,2.78-1.27a5,5,0,0,1,.83-1.13l.31-.35.59-.62,1.39-1.49a10.3,10.3,0,0,0-1.33,1.06,4.46,4.46,0,0,1-1.17.86l.18-.23.35-.39.72-.79c.48-.51,1-1,1.43-1.58.5-.19.59,0-.18,1.07,1.5-.9,2.68-2.48,4.16-3.36.86-1.09.24-.72.77-1.48A8.35,8.35,0,0,0,311,194a9.52,9.52,0,0,0,2.57-2c1.42-1-2.32,3,.23.86,1.56-2.93,10.16-10.76,12-11.61,1.75-1.31.52-1.08,1.88-2.57.47-.57.95-.93,1.43-1.59,1.82-1.37.6.25,2.4-1.09,2.15-2.91,5.83-6.28,9.31-9.37l4.35,4.85c1.23.57,2.29,1.85,3.5,2.66-2.24-3.08-2-1.38-4.31-4.21,1.24.69.9.5-.26-1.52,3.31,2.19,6,5.56,6.65,7.12-1.43-.79-2.37-3.24-3.84-3.9,2.15,2.2,2.9,4,1.08,2.72,3,3,5.8,6.42,8.71,9.42-1.15-.18-.61,0,1.47,2.58a24.51,24.51,0,0,1-4.36-5.17c-.92-.58,1,1.72-.32.77,1.76,1.52,3.26,3.59,4.95,5.21,1.28.83-.28-1.24-1.33-2.79,2.72,2.51,5.09,5.48,8.09,7.69.56.09-.19-1.16.64-.8,2.93,2.72-.36.58,1.75,3.06.33.68-.84-.7-1.63-1.12a52.12,52.12,0,0,0,5.37,6.32,50.5,50.5,0,0,1,5.5,6.58l.8.61.38.31.26.19c.32.24.62.48.9.73a20.29,20.29,0,0,1,1.62,1.59c1,1.11,1.95,2.28,3,3.36.2,1.15-1.89-1.13-2.6-.85,1.19,2,2.65,1.51,2.05,2.67.82.23,1.16,0,1-.77a33.77,33.77,0,0,1,5.4,5.76c1.34,0,2.85,2.07,4.08,3.48.12.37-.54-.06-.94-.23-.55-.37-.7-1-1-1.59-.45-.28-.62-.27-.57,0l-.73-.39c.7,1.19,2.26,1.73,2.57,3.21-.89-.43-1.24-1.25-1.93-1.81-.87.08,1.28,1.79,1.68,2.47-2.56-1.1,1.87,2.21,2.89,3.9.22-.35,1.13-.46,2.23.66-1.23-.33.17,1.1-.34,1.66a1.94,1.94,0,0,1,.89.74c.07-.94,1.77.93,2.6.85.64.8,2.28,3.55,4.35,4.68.67,1.18-.47.49-.82.62a41.67,41.67,0,0,1,3.05,4.25l1.46.77-.64-1.39c-1.54-.56-1.83-2.06-2.78-3,1.67.92,2.24,2.68,3.87,3.63-1.26.92,2.33,3.36,3.85,6-.64-.91-1.73-1.5-2.25-2.51-.59.32,1.76,2.39,2.57,3.21.51,0,.68-.27,1.35-.08,1.57,1.35.19,1.15.59,1.9a1.9,1.9,0,0,1,1,1.08c.67-.46,1.91.82,2.62,2.7-.12-1.34.62.23,2.4,1,.93,2-2.37-1.55-1,.77a2.42,2.42,0,0,1,1.58.53c.19.11.64.49,1,.74a8.08,8.08,0,0,0,1.16.74c.77,1.21,0,.67-.84,0-.44-.35-.91-.75-1.25-1s-.4-.21-.39,0l1.16,1.18c.36.34.65.62.95.86a11.72,11.72,0,0,0,2.11,1.36c1.38,2.18-1.65-1.26-1.54-.48,2.75,4.09,4.79,4.66,8.74,8.2.64,1.08-.14.7,1.05,2.35,2.45,1.64,3.54,3.57,5.72,5.29.1.6-1.15-.19-1.26.18-.84-.51-1.18-1.07-1.9-1.57-1-1.43.67-.06.92-.16-2.58-2.45-3.82-3.06-6.46-6.05a35.91,35.91,0,0,0,4.75,5.4c.92,1.46-2.2-2.19-1.39-.69-1.54-1.93-3.53-3.78-5.22-5.71-.52-.28.15.65-.53.19-1.76-1.41,0-.67-1.33-2.26a8.74,8.74,0,0,1-2.11-2c-.82.3-1.68-.71-2.73-2-.52-.65-1.1-1.38-1.72-2.05l-.48-.48c-.11-.1-.22-.2-.34-.29a3.33,3.33,0,0,0-.76-.42c-.68-1.19.84-.26-.43-1.55-1.16-.46-.57.89-1.76.39.39,1,1.47,1.39,1.89,2.31.4.17,0-.47-.12-.85a4.08,4.08,0,0,1,.82.56c.13.11.21.19.37.35l.47.5c.61.69,1.16,1.41,1.76,2.1-.17.49-1.42-1.14-2.21-1.17-.91-.86-1.29-1.3-1.83-1.86a9.72,9.72,0,0,0-1.76-1.48c-.69-1.19.83-.25-.44-1.55-3.15-.58-7.82-7.31-11.25-10.71.1-.39,1.57.65,1.35-.08,3,3.37,5.77,6.88,9,10.06.84.21-.82-1.5-1.58-1.62-.45-1.11-1.62-2.14-.07-1.36-.95-.84-1.92-1.67-2.82-2.55.05-.44,1.28.34.3-1.16-1.41-.39-1.49-.83-2.67-2.21-.76-1.21.7-.13-.06-1.34a24.19,24.19,0,0,0-5.86-4.95c.19-.12-.22-.85.25-.66,1,.55-.43.48,1,1.08-1.17-1.92-3.1-3.28-4.3-5.18l-2.56-1.36a5.9,5.9,0,0,0-.75-2.24c-1.75-.56,0,1.22,0,1.86-1.33-.72-1.21-2.52-2.78-3.06-.82-1.59,1.86.46.72-1.46-.35-.18-.1.27-.05.5-2.37-1.81-4.05-4.13-5.93-6.31-1.5-.75-.25,1.34.76,2.25-1.16-.85-3.11-1.11-3.61-2.45-.08-.78,1.21,1,1.3.43-.06-.88-1.3-.89-1.36-1.77-1-.31-.43.51-2-.82-.41-.79-.2-.95.62-.46-1-1.81-2.1-.7-3-2.4-.09-.65,2,1,1.19-.42-1.23-.85-1.17-.35-2-.82a4.26,4.26,0,0,1-1-1.08c.27-.31,1.73,1.19,1.86.47-1.37-1.34-.75-1.28-1.64-3a18.25,18.25,0,0,0-1.72-2c-.3-.32-.62-.63-.93-.94l-1-1c-2-1.87-3.89-3.54-5.33-5,3.1,1.84-6.46-7.33-9.23-10.69.57-.38,3.95,4.17,6,5.26a36.37,36.37,0,0,0-5-5.07,21.71,21.71,0,0,1-4.14-4.42c-.52-.29.27.76.62,1.36-1.46-.63-2.34-2.32-3.71-3.06a31.92,31.92,0,0,0-5-6,25.75,25.75,0,0,1-4.23-4.88,57.41,57.41,0,0,1-4.89-4.6,42.77,42.77,0,0,0-4.91,5.51c1.59-1.5.5-.24,1.69-.94-2.42,2.95-3.92,4.21-4.92,4.64s-1.44,0-1.62-.57c-1.1,1.8-.15,1.59-.84,3-1.91,1.65-3.79,3.6-5.73,5.07-.73.24,2.25-2.63,3-3.85a26.41,26.41,0,0,1-3.37,3.18c-1.93,1.71-4.11,3.65-4.72,4.39-1.09.91-1.27.11-.12-.6-.22-.64-1.83,1.78-2.73,2.68-.41.64.55-.06,1.05-.31-1.83,1.83-4.31,3.74-7,6-1.33,1.1-2.71,2.29-4.06,3.55-.67.63-1.33,1.28-2,1.94l-.94,1-.23.26-.15.17-.24.32-1.74.8c-.39.73-1.2.9-1.47,1.78-3.17,1.18-4.69,4.54-7.81,5.78a23.36,23.36,0,0,1-7.69,6.56c1.23-1.76,1.14-2.06,2.09-3.44-2.67,2.64-4.87,6-6.69,6.65.74.78-.88,3.06.61,3.31-1.44,1.2-3,2.24-4.45,3.41.83.78,5.21-4.47,5.95-3.27-.36.76-1.32.73-1.93,1.16.29.84-2.17,2.18-2.79,3.76-.08-.5-.21-1-1.85,0,.5.38-.27,1.31-1.2,2.76-1.14.42-3.08,1.42-2.67,2-1.19.68-.94-.17-2.08,1-.85.15-.11-.36.43-1.3a17.67,17.67,0,0,0-3.45,3.51c-1.19.57.47-1.63-.77-1-.36.63-.1,1.81-1.51,2.35,0,.39-.47,1.28.81.46-1.35,1.71-1.17,1.38-1.35,2.55-.28.88-1.51.49-1.78,1.37-.94,1.59,1-.26,1.54-.43-.65.78-1.6,1.18-2.16,2.09-.76.26.71-1.63-.62-.82,0,.76-1.77,2-1.43,1.21-1,2.35-4.07,4.67-7,6.24.1.31-.37,1.19-.27,1.5,1.31-.91.8-.39,2.09-1,.57-.85-.13-.47-.66-.25,2.14-2.34,4.85-3.91,7.31-5.84-1.62,2.21-4.14,3.22-5.76,5.4a30.65,30.65,0,0,1,3.36-2.36c-.9,1.29-2.39,1.79-2.94,3.55-.76.27,0-1-1.16-.3-.3.63-.83,1-1.12,1.62-.84.52-.39-.22-.12-.77-.69.32-1,1.2-1.77,1.36.18.84-1.86,2.2-1.56,2.92-1.72,1.08-.48-.71-1.85,0-.85,1.38-3.64,3.41-4.1,3.26-1.38,2-1.87,1.34-3.24,3.14-.92.24.74-.93.77-1.46-1.86,1.05-3.06,3-4.83,4.14-.34.89-.38,1.11-.12,1.71-1,.78-2.56,2.64-2.25,3.24-1.36,1,.37-1-1-.09-.91.66-1.43,1.83-2.52,2.26-.81,1.25.06.83-1,1.82-1.15.52.74-1.9.32-2.08.4-.92,1.76-.55,2-1.73-.62-.22-2.71,1.91-3.59,3.31-1.15.74-.63-.11-1.55.43-1.09,1.67-3.55,4.78-4.37,4.76-.55.35-.37.65,0,.57a7.77,7.77,0,0,1-3.2,2.57c-.35,1-1.18,1.35-1.51,2.35.91-1.48,2.87-1.56,3.59-3.3,1.19-.27.21,1,2.4-.55-1,2.2-2.07,1.91-2.52,2.26-.69,1.53,1.36-.68,1.7-.23a2.25,2.25,0,0,1,1.62-1.57c.42-1.07,1.26-1.43,1-1.82-1.07.64-1.61,1.63-1.73.79.49-.79,1.58-.79,2-1.73.78-.06-.33,1.25,1.36-.06-1.1-.16,1.22-1.15,2.16-2.1.26,0,.44.83-.42,1.3.74-.74,3-1.76,4.09-3.26,1.69-.11,2.93-2.3,4.37-2.27,1.24-1.53.73-1.8,2.24-3.23.42-.11-.19.78-.42,1.29,1.66-.48,2.53-2,3.9-2.89.21-.67-.13-.52-.85.11.36-1.23,1.92-1.86,1.51-2.34a1.14,1.14,0,0,0,1.39-.64c.84-.14.1.36-.43,1.3,1.72-1,2.79-2.92,4.8-3.57-.33-1.55,2.38-1.46,2.94-3.56.21.9,1.34-.86,1.89-.59a7.72,7.72,0,0,1-3.21,2.57c-.22,1.71-3.31,3.5-5.37,4.67.13.4.27.8-.66,2.24,1.86-3.5,8.87-6.09,10-10.37a52.67,52.67,0,0,1,5.37-4.67c.21-.67-.14-.52-.85.11l1.16-2.19a5.63,5.63,0,0,1,1.78-1.36c-.56,1.12-1.65,1.54-2.05,2.87,1-.51,1.8-1.33,2.82-1.84l.78-1.46a10.21,10.21,0,0,1,1.42-1.21c.73-.29.27.58-.27,1.51,2.16-1.77.31-2,2.79-3.76.08-.38-.05-.55-.66-.25a5.89,5.89,0,0,1,1.47-1.78c-.38,1.92,4-1.91,5.76-2.91-1.4,1.78-5.85,5-5.1,5.65-1.62,1.58-3.51,2.8-5,4.51.28.73,2.1-1.74,3-2.21-1.07,1.51-1.25,1.29-1.71,2.71-1.34-.23-1.66,1.44-2.93,1.07-1.07,1.68-.16,1.45.58,1.39-.9,1.19-1.42.58-2.09,1-.45.85-1.17,1.35-1.51,2.34-1.14.76-.62-.1-1.54.43-.82,1.67-.68.7-2,1.74-1,1.54-2.48,2.5-3.48,4.08-1.28.83-.21-.62-.8-.47,1.19-1.45,4-3.32,3.13-3.91a17.75,17.75,0,0,0-1.86,2.51c-.17-.07-.36-.13-.85.11-.83,1.59-1.05,1.86-2.36,2.46-1.25,1.86.75.57-.5,2.44a8.12,8.12,0,0,0-.74.89c-1.18.67-.49-.47-.62-.82-1.09.2-1.47,1.36-2.47,1.68-.46.68-.09.56.31.41-1.43,1.82-3.78,2.43-4.72,4.92-3.21,2.5-5.1,5.11-8,6.72-.52,1.39-1.71,1.88-2.55,2.83.06.8.52.53-.12,1.71a12.19,12.19,0,0,1,2.78-1.28c.21-1.07-.18-.46.47-1.86,1.07-1.28,2.51-2.05,3.28-3.72,1-.3-.58,1.87-.5,2.44.85-.37,2.61-2.69,2.82-1.84,1.92-1.59,3.17-4.08,5.56-5-.84,1.37-2.07,2.23-2.94,3.56a7,7,0,0,1,2.48-1.69c0-.71.21-.95,1.08-1,1.52-2.75,4.43-3.65,6.3-5.93,1.25-.84.19.54-.07,1.14,1-.32,1.44-1.4,2.32-1.89a4.13,4.13,0,0,0-2.75.7c-.18-.11-.17-.42-.11-.77a23,23,0,0,1,2-1.73c.46-.09-.31,1,1,.09.56-.83.28-.86.43-1.3s.82-.56,1.08-1.05c1-.2-.39.8-.08,1.15-.6,1.05-1.89,1.21-2.35,2.45,8.72-7.66,17.09-15.82,26-23.23-.09-1.37,2.95-3.56,3.95-3.46.22-1-1-.58-.73-1.59,1.39-1.72,1.89-.77,3.21-2.58.37-.13-.06.53-.24.94,1.45-1.2,2.45-3,4-4-.77,2.67,3.69-2.51,6.49-3.8.93-1.26-.43-.29-1-.09,2.22-2.08,1.33-1,3.55-2.73.21-.49-1,.35-.65-.26a5.39,5.39,0,0,1,1.78-1.36c-.07-.29.06-.77.62-1.66,1-1.49,1.24-.28,2.16-2.1.57-.19.46.26-.08,1.14,3.48-2.84,3.2-2,7-6.24.34,0,.47.14.12.77a24.14,24.14,0,0,1,3.57-4l1-.94,1.18-1.14c.78-.78,1.54-1.58,2.27-2.46.23,0,.47,0,.25.47a21.17,21.17,0,0,0,3.31-4.48c1.19-.8,1.26-.52.3.78a71,71,0,0,1,6-5.5,32,32,0,0,0,5.86-6.46c1.28-.82-.22,1.05,1,.25-.62,1-1.31,1-1.91,2.22,2.49-2.67,5.59-6.49,8.8-9.37.61.68,1.23,1.4,1.84,2.16.59-.19-2.51-3.13-.48-1.93a27.66,27.66,0,0,0,4.4,5.6c1.19.07-1.34-1.46-2.18-2.78,1.33.57,2.47,2.2,3.72,3.27-.1.51-.54.66-1,.74,1.63,1.54,3.11,2.67,4.66,4a34.91,34.91,0,0,1,4.87,4.92c.17.42-.6-.14-.27.45.38.74,1,1.17,1.35,1.93,1.43.78.85.15,2.36,1.34-.06.3.11.84.76,1.87a57.21,57.21,0,0,1,4.76,4.71c.46.94-1.3-.7-1.44-1.11a6.5,6.5,0,0,0,2.33,2.58,9.08,9.08,0,0,0,2.68,1.3c1.09,1.61-.39.57-1.35.07,1.84,1.9,4.52,3.15,6,5.3.45.75-1.43-.37-1.26-.93-.12.67.73,1.83,2,3.17-.44-.39-1.72-1.52-.94-.23-.64-.46-.81-1.26-1.77-1.47.49,1.18,1.75,1.79,2.41,2.86-.07-.56,1.15-.23,1.82,1,.48.13-.34-.52-.47-1a16.15,16.15,0,0,0,4,2.64c1,1.5-1.12-.18-.31,1.15,1.1.55,2.44,1.92,2.92,1.55a71.08,71.08,0,0,0,6.09,6.66c.25-.16.2-.65,1.5.27.26,1.32-1.54,0,.54,2.39-1.11-.41-1.52-1.35-2.3-2-.42.5,2.52,2.45,3.3,3.6.27,0,0-.6.78-.12.63,1,1.36,1.51,1.48,2.63,1.23.84.8,0,2,.82.84.75.63,2.26,2.77,3.05.54.91-.32.4.44,1.54a5.73,5.73,0,0,1-1.94-1.81c2.91,4.82,10.1,10.48,14.63,15.65-.23.26-1,0-1.87-.46a11.83,11.83,0,0,0,1.45,1.47,7,7,0,0,1,1.4,1.66c1,.6,1,.14,1.05-.2,1.27,1.29,2.79,3.29,4.47,5.14a19.33,19.33,0,0,0,5.79,4.69c.17,1-1.5-.89-1.87-.63,1.77,1.86,2.22,2.27,3.47,3.76.53.24.47-.13,1.07.19a19.71,19.71,0,0,1,2.8,3.42,6.89,6.89,0,0,0,2.93,2.66c.23.68-.51.34.08,1.39.62.51,1.49,1,2.07,1.55a4.06,4.06,0,0,1-1.4,1c.2.73-1.18,2-2.69,3.26s-3.18,2.66-3.82,3.93c-.05-.3-1.6.85-1.37.28-1.12,1.47-2.15,3.12-4.38,4.07a5.64,5.64,0,0,1-1.25,1.91,1.52,1.52,0,0,0-1,.27c.09.47-1.46,2-1.12,1.09a15.29,15.29,0,0,1-3.92,3.79c.74,0,0,.8-1,1.84-.39.15.06-.53.23-.93a25,25,0,0,0-2.13,2,21.88,21.88,0,0,1-2.07,1.91c.68-1.51,1.48-1.26,1.51-2.34a11.93,11.93,0,0,0-2.52,2.25c-.4.1.2-.78.43-1.3,1-1,2.51-1.25,3-2.76-1.08,1.28-1.21,0-2.26,1.3-.35-.06-.27-.35,0-.76a15,15,0,0,1,1.09-1.35c.65-.22.21.61.31.93,1.26-.73,1.18-1.55,1.4-2.23a9.57,9.57,0,0,1,2.79-2.35c-2,1.79-.83,1.94-2.43,3.24-.19.82,1.87-1.51.52.55-.76,1.32-.31-.79-1.06.5-1.06,1.78,0,.41,1.05.05a4.89,4.89,0,0,1-1.11,1.07,18.25,18.25,0,0,0,3.17-2.95,34.33,34.33,0,0,1,3.85-3.68c-1.21.16.93-1.1.45-1.48a25.92,25.92,0,0,0-3.43,4c-1.95-.47,2.82-4.35,3.72-5.89,2.58-1.62,1.31.49,3.18-.44-.75-.43,2.1-1.72,2.27-2.9-.74.89-3.45,3.12-3.37,2,2.37-1.14.93-1.52,3.64-3.35,1.54-1,.54.53,2.1-.45l.67-1.53c-.62.37-1.22.72-1.14.41a41.7,41.7,0,0,1,4.37-5c-.86-.82-1.73-1.64-2.69-2.45-.12.75,1.29,1.54,1.68,2.29-2.05-1.48-4.9-3.93-4.11-4.62a7.78,7.78,0,0,0,2.72,2.07c1,.31-1-1.27.13-.79-1.84-1.72-4.49-3-4.17-4.31-1.26-.55-1.46-1.22-2-1.87-.24.06-1.06-.48-1-.13a28.42,28.42,0,0,0-3.34-3.53c-1.24-1.21-2.28-2.31-2.32-3.07-1.2-1.15-2.54-2.21-3.76-3.33.13-.17.45-.15.82-.07-.77-1.18-1.12-.45-1.86-1-.71-1.34.25-1,1.07-.72-1.09-1.44-2.76-2.77-2.57-3.76-.75,0-.16,1.31-1.75.39,1.33,1.93,1.49-.06,3,2.39-.06.67-.71.43-1.87-.46-2.2-1.93-3.21-4.76-5.51-6.61-.19-1.21,1.2.63,2.19,1.16-.58-1.12-1.79-1.77-2.83-2.55-.06.17-.12.36.12.85-.81-.63-.73-1.18-1.26-.93-1.06-1.85-3.63-2.57-4.14-4.84-.63.19-2.91-2-2.62-2.7-1.74-.21-4.17-2.8-5.49-4.76-.64-.41-.48,0-.94-.23-1-1.67-2.86-3-2.16-3.52L383.47,243c-1.44-2.1,1.22,0,.51-1.31a10,10,0,0,1-3.5-3.44c-.51.09-1.94-.77-2.61-.85-.31-1.06,2.08.68,1.24-.93-1,.75-4.31-2.76-5.5-4.76-1.54-1.23-2-.59-3.23-2.24.42-.21,1.83.49.09-1,0-.52,1.06,0,2.23.65a.93.93,0,0,0-.52-.53l-.31-.7c-1.11-.66-.76.19-1.88-.47-1.64-1.16-.64-1.59-1.79-3.32-1.37-.69-1.75-2.12-3-2.9a6.89,6.89,0,0,0,2.94,3.4c-.23.19.15,1,.59,1.89-1-1.25-1.35-.75-2.25-2.51-1.38-1.06.23,1-1.14-.08a12.08,12.08,0,0,0-2.09-2.86c-1-1.11-2.14-2.29-3.09-3.39-.56-.11,1.33,2,2,2.44-.4,1-2.9-1.75-4-3.2-.41-1.3,1.93,1.93,1.44.75-1-1.93-1.38-.77-2.55-2.45,1.18.35.09-.71-1.44-2.22s-3.48-3.44-4.17-5c-.88-.15-3.09-2-4.7-2.84.24-.56-.85-1.73-2.08-2.77a13.48,13.48,0,0,0-2.9-2c-.39-.64-.79-1.29-.49-1.22-.13,0-.29-.1-.49-.27a14.66,14.66,0,0,0-2.32,2.72c-.87-.47-1.94,1.87-3.84,4.08-.44,0,.25-1.07-.92-.36a45,45,0,0,1-4.4,4.75c-1.36,1.3-2.76,2.6-4.5,4.58-.55.07.06-.94-1.1.18.37,1.08-1.76,2.3-3,2.56,1,.14-.57,2.41-2.32,3.67-.87-.05,1.78-1.74,1.07-1.93-.62.26-1,.84-1.67,1.08-.22.68.65.26-.47,1.34-.46.16.47-1-.11-.77-1.93,1.4-2.25,2.24-1.86,2.51-1.21,1.48-.49-.65-1.74.79.56.33-.49,1.64-1.55,2.92-.94-.14-.85.8-2.28,1.32.34.44-1.07,1.73-2,2.3-.28-.15.47-.67-.11-.77.06,1-4.7,4.43-3.37,4.85-1.21.67-1.52,2.55-2.74,3.19-1.12.3.65-1.18,1-2.4-1.11.8-1.93,2-3.05,2.78.54,1.72-3.62,4.68-4.45,5.91-.21-.47,1-1.9,1.36-2.56.65-.4.5,0,.3.41,1.37-.92.61-1.11,1.86-2.5-1.9,1.62-2.24,2.18-4.41,2.84-.92,1.31.5.35.27,1-2.19.83-7.88,7.72-10.44,9.75-.3.41-1.93,2.57-.82,2-1.05,1.81-3,2.16-2.39,3-1,.51-.33-.63-.62-.82.38-.55,1-.7,1.59-1,.54-1.23-1.14,0,.46-1.87-1.39,1.33-1.35,1.8-2.78,3.76a1,1,0,0,0-.85.11c-.63,1.22.76-.3.81.46-.67,1-1.77,1.4-2.21,2.67,4.53-3.52,8.71-7.5,12.92-11.44,1.36-1-.37,1.06,1,.09,1-1,.53-.93,1-1.82,1.4-.64-.05,1.46-.7,2.81-2.33,2.2-5.63,3.79-8.08,7.29-.8.8-1.93,1.17-2.67,2.05,1.11-.29.84-.13-.93,1.25-.78,1.11.3.42-.08,1.14-2.64,1.19-2.65,2.25-4.48,4-.92.53-.41-.32-1.55.43.46.33-.17,1.45-1.51,2.34-.91.53,1.08-1.75-.46-.61a1.93,1.93,0,0,1-1.08,1c.09.21-.07.66-.43,1.3a44.46,44.46,0,0,1-6,4.42c.2,1.32-2,1.53-2.74,3.19-.86.16.93-1.13,1-1.82a17.73,17.73,0,0,1-3.05,2.77c-.48.62-.6,1.71-1.32,2,.75.2.38.46-.66,2.23,2-2.12,3.34-2.31,4.68-4.35,1.36-.51-.38,1,.81.46.87-1.37.7-1.75.11-1.71a16.12,16.12,0,0,0,1.67-2.14c.58.6,2.06-1.41,2.86-2.42,1-.23-.86,1.51-.66,2.24a3.12,3.12,0,0,0,1.32-2,8.76,8.76,0,0,0,3.17-2c-.23-.25.49-1.42,1-2.39.61,0,.46.74,1.86,0,.49-1,1.47-1.37,2.16-2.1-.11.53.73.12.81.46A93,93,0,0,1,285.9,260c1.13-2.23,3.44-2.89,4.72-4.93,3.66-1.7,6.46-7.35,9.47-7.92.25-.9,1-1.17,1.31-2a13.5,13.5,0,0,0,2.63-1.48c-.91,1.31-2.13,1.77-2,2.87,0-1-.86.38-1.93,1.16-.34,1.08.61,0,1.39-.64-.9,1.72-2.37,2.66-3.63,3.87-.65.28,1-1.52,1.46-1.77-.86-.09-3.22,3.16-4.68,4.35.93-.22,1.2-1.31,2.13-1.53-2.59,2.29-3.14,3.7-5.3,6-1,.54,1.41-2.2-.26-1l-.78,1.47a29.43,29.43,0,0,0-6.54,6.86c1.12-2.08-1.33.59-2.82,1.84,0,.42-.45,1.31.66.25-1.29,2.59-2.49,1.69-3.64,3.87-1,.44-.85-.24-1-.66a3.87,3.87,0,0,0-1.36,2.56c-.93,1.33-3.76,2.47-3.44,3.5-.48.46-2.52,1.95-2.28,1.32-.67,1.49-3.56,4.51-6.34,6.5a9,9,0,0,0,1.89-3.08c-1.07.63-2.09,1.36-3.17,2-.7.89,1.38-.08.12.78-.09,1,1.21-1.2,1.63-1.58.74.44-2.08,4-4,4.61-1.83,1.7-2.63,4.79-5,5.86l-.78,1.45c-1.07.68-.27-.45-.46-.62-1.21.88-1.68,2.74-3.09,3.35-.86.16.83-1.26,1-1.82-2.83,3.22-5.36,6.38-7.93,7.49a9.61,9.61,0,0,0-2.4,3c.76-.45,1-.43.66.24-1.48.56-3.89,4.06-6.27,5.36a4.34,4.34,0,0,1,1.67-2.14c-.82.17-3.7,2.95-5.18,4.3-.87,1.72.93-.9,1.74-.8-.65,1.22-1.8,1.77-2.4,3,.34,0,.46.15.11.78.93-.4,1-.93,1.39-.63a5.43,5.43,0,0,0-.93,1.25c-2,.56-2.21,1.15-4.21,2.48.52-1.38,2-1.45,2.55-2.83-.92.23-1.35,1.1-2.28,1.32.88-.13-1.36,2.61-2.44,3.6-.37.13.06-.53.24-.93-1.1.2-1.47,1.36-2.48,1.68-.3.65,1.06-.31,1,.1-1.62,2.19-3.91,3.5-5.61,5.6.4.55,1.31-1.42,2.32-1.89.24-.06.15.21.5.05-1.53,1.13-1.6,1.89-2.94,3.55.52.51,1.69-.95,1.81-1.93,1.46-.94-.72,1.78,1,.09C221.14,329.37,219.34,331.3,221.07,330.49ZM328,235.72a4.21,4.21,0,0,1,1.38-1.59l.41-.3a3,3,0,0,1,.38-.24,3.29,3.29,0,0,0,.46-.23,1.72,1.72,0,0,1-.24.49,6.74,6.74,0,0,1-.71.69A14.07,14.07,0,0,1,328,235.72Zm54.22,37.67c-1.27-.48-2.71-2.65-2-.81a21,21,0,0,1-4.35-4.68c1.15.43,1,.8,2.4,1,.3.55.46,1.21,1,1.58s.06-.43.41-.31C380.4,271.31,381.9,271.89,382.2,273.39ZM270.57,75.71c.7-1.22.12-1.38,1.66-2.14C272.49,73.85,271.56,75.32,270.57,75.71Zm-10.48-9a13.62,13.62,0,0,0,2.48-4.18c1-.16,1.41-1,1.82-1.93a5.14,5.14,0,0,1,2.4-.55c1.08-1.76-.22-1.22-.93-1.23,2.39-2,3-.82,2.12,1-2.45,1.09-3.3,4.32-5.45,5.81-1.32.51.85-1.25.08-1.14C262,65.52,260.42,67.07,260.09,66.71ZM97.58,235c-.72,1.33-2.06,1.83-2.9,3A7.4,7.4,0,0,1,97.58,235ZM96.45,345.31c.11.74,2,2.49,1.12,2.43C97.29,346.63,95,345,96.45,345.31ZM159,409.58c-.6-.79-1.68-1.24-1.89-2.33C158,407.58,159.75,409.58,159,409.58ZM299.45,203.22a17.3,17.3,0,0,1-3.75,3.09C296.73,205.38,299,202.81,299.45,203.22Zm41.08-28.66c-.21,1-7.7,8.16-6.41,5.74C336.24,179.13,338.47,175.59,340.53,174.56ZM231.1,278.4c.15-.44-.13-.47.42-1.3.62-.22,1-.76,1.59-1A3.89,3.89,0,0,1,231.1,278.4Zm138.55-49.3c-2.43-2.43-3.47-3.55-5.4-5.76A24,24,0,0,1,369.65,229.1Zm-52.53-6.64c-.87.74-3,3-3.21,2.57C314.73,224.22,316.8,221.87,317.12,222.46Zm-27.34,25.21a2.08,2.08,0,0,1-1.31,2C287.77,249.86,289.2,247.81,289.78,247.67Zm-60.73,72.26c-.68.42-.19.44-.59,1.1-1.3.13-1.36,1.92-2.66,2C226.29,321.63,228.76,319.59,229.05,319.93Zm40.09-34.37c-.71.74-1.17,1.78-2.17,2.1A3.81,3.81,0,0,1,269.14,285.56ZM309,252.71c.22.47-1.5,2.14-2.7,2.61A6.57,6.57,0,0,1,309,252.71Zm7.93-7.5c-.72,1.14-3.17,3.21-3.56,2.73C314.61,247.17,315.38,245.7,316.88,245.21Zm-72,32.94c1.86-1.68,3.42-3.74,5.42-5.24C249,275.08,246,277.75,244.91,278.15ZM338.11,237c.17.64-.22.95-.65.73C337.4,236.85,337.76,236.79,338.11,237ZM299,250.63c-.92.86-1.57,2.08-2.71,2.62C296.81,252.24,298.76,250,299,250.63ZM243.53,276.3c-.63.08-2,2.19-1.93,1.16C242.41,276.85,243.86,274.94,243.53,276.3Zm1.66-2.14c.93.12.94-.69,2.13-1.52-.32.6.85-.24.65.25-1.36,1.22-1.3.5-2.16,2.09l-1.05.48C244.92,275,244.64,275,245.19,274.16Zm6.14-3.64c-.86.93-1.47,2.18-2.7,2.62A4.55,4.55,0,0,1,251.33,270.52Zm42.35-23.25a6.14,6.14,0,0,1,1.47-1.78c-1,1.51.6,1.7-1.4,3.13C292.92,248.59,294.9,246.66,293.68,247.27ZM259.5,262.09l-.78,1.46-1,.48C258,263,258.82,262.64,259.5,262.09Zm-21.21,9.71c-1-.28-1.06,1.12-2.32,1.89C235.29,273.19,239.61,269.5,238.29,271.8Zm61.19-30.5c2.09-1.27,3.45-4.29,5.18-4.3-.32-.75,1.55-2.55,2.75-3.19-2.5,2.66-1.48,2.93-3.6,5.79-1.69.18-.91,1-2.08,1-1.25,1.47-3.69,4.62-4.53,4.56.29-.17,1.69-1.69.93-1.26a9.74,9.74,0,0,1-2.86,2.42,3.62,3.62,0,0,1,2.32-1.89C298.2,243.26,299.87,241.89,299.48,241.3Zm34.71-12.17c.22.68-.59,1.21-1.05,1.51C332.91,230.14,333.66,229.24,334.19,229.13Zm-41.74,16.5,1.39-.64a3.59,3.59,0,0,1-1.47,1.78C293.42,245.39,291.39,247,292.45,245.63Zm-44,17.92c-.47,1.26-2,1.1-2.36,2.46-1.08.56-.47-.8-1.9.6C245.52,264.07,246.78,265,248.46,263.55ZM268.82,254c-.58,1.1-1.08,2.31-2.21,2.67C267.39,255.81,267.72,254.36,268.82,254Zm-13.76,6.57c-1.41.36.75-3,2.29-3.81.3.38-.25,1.4-.82,2C256.09,258.27,255.31,259.61,255.06,260.53ZM317.5,226.7c-.45-.48-1.22.85-1.47,1.78-.74.66-1.1.83-1.39.64-1.52,2.34-4,3.43-5.46,5.81-1.05.59-.6-1-1.58,1-1.17.61-1.84-.17-.08-1.35-.19.43-.35.82.31.42-.68-1.36,2.75-4.06,4.3-6.12l1.74-.79c1-1.1,1.67-2.75,3.09-3.35,0,1.12-2.4,3.65-3.87,4.81.38-.12,0,.31-.39.73.93-.84,2.16-1.28,3-2.21.91-1.9,1.93-3.65,3.68-4.44C317.2,225.73,318.13,225.63,317.5,226.7Zm-47,25.12c.33-.68-1,.27-.46-.62.88-.06.89-1.3,1.78-1.37-.57,1.14-.07,1.25-.86,2.6l-1,.48Zm73.08-12.66c-.14.42-.65.58-.49,0C343.25,239.08,343.73,238.52,343.56,239.16Zm-1.27-13.57c-.21.4-.58-.09-.87-.63s-.48-1.09-.23-.73C341.54,224.8,342,224.57,342.29,225.59ZM264.65,250.9l-.77,1.45c-.38.14-1,.52-.85.12C263.69,252.08,263.25,251.41,264.65,250.9Zm12-7.7c-.39.68-.1.7.66.26l-1,1.82c-.88.7-1.89,1.21-2.82,1.84C274.62,245.92,275.57,244.48,276.63,243.2Zm-11.59,7c.3-.82-.16-.91-.42-1.18.69-.33,1-1.2,1.77-1.37-1.62,2.83,2.23-1.54,2.05-.38-1.32.75-3.31,3.85-4.1,3.25Zm17.54-10.24c-1-.3-1.82,1.71-3.21,2.58C279.37,240.91,282.75,238.4,282.58,239.92ZM284.9,238c1.06-.87.81.34,1.39-.64.29-.7-.56-.28-.27-1l1.4-.64c-.27.56-.72,1.29.11.78a4.38,4.38,0,0,1-1.66,2.14c.19-.43.35-.82-.31-.41-.84,1.16,0,.72-.63,1.67C283.41,240.79,284.92,238.67,284.9,238Zm9.58-4.66a7.1,7.1,0,0,1-3.59,3.3A10.66,10.66,0,0,1,294.48,233.38ZM269,246.13c1.16-1.56,3-2.22,4.13-3.83-.79,1.54-1.63,2.17-3.29,3.72C270,245.62,269.53,245.88,269,246.13Zm54.3-27-.8,1.49a2.78,2.78,0,0,0-2.08,2l-1,.45A20,20,0,0,1,323.33,219.11ZM275.6,241.19c-1,.56-1.63,1.57-2.67,2.05C273.3,242.24,275.49,240.5,275.6,241.19Zm72.25-8.52c-.78-.33-1.08-1.48-1.79-1.93C346.63,230.15,347.48,231.85,347.85,232.67Zm-80.37,11.41c-.35-.08.13-1,.28-1.51a14.27,14.27,0,0,1,2.16-2.1c.53,0,.34.74.43,1.19.71-2,2.14-2.95,3.32-4.28,1.7-.4,2.68-1.55,4.76-3-.41,1.32-3.64,3.73-5.42,5.24.61-.29.74-.12.66.25-1.62,1.58-2.22,1.85-1.74.8-1.16,1.33-4.75,5.44-6.61,5.51C266.86,245.17,266.22,245.13,267.48,244.08Zm18-9.06c0,.92-.29,1.67-2.05,2.88C285.23,236.16,283.57,236.7,285.45,235Zm-13.25,6.62a14.68,14.68,0,0,1,2.13-1.52C273.84,241.22,271.74,242.88,272.2,241.64ZM327,215.55a3.72,3.72,0,0,0,1.27-1.4l1.49-.55c1.58-2.39,2.15-2.18,4-4.6-.47.81.45.29-.39,1.45-1.1.37-2.1,1.73-3,3,.52.09.71.51-.15,1.93a11.32,11.32,0,0,1-2.43,1.45c.6-1.18,1.47-1.54,2.07-2.89C329.26,213.73,327.38,215.94,327,215.55Zm1-.07a4.45,4.45,0,0,1-2.68,2.23A8.93,8.93,0,0,1,328,215.48Zm-48.16,20.18c1.36-1-.36,1.05,1,.09a5,5,0,0,1-2.16,2.09C278.46,237.59,279.13,236.34,279.85,235.66Zm73.37,7.61a4.76,4.76,0,0,1-2.3-2A5.59,5.59,0,0,1,353.22,243.27Zm-75.61-6.87c.7-.38.55.06,1.19-.26a3.2,3.2,0,0,1-2,1.72Zm29.87-15.6c.61-.31,1-.41,1.19-.27-1.09,1.25-2.06,2.65-3.59,3.3C305.62,222.49,307,222.18,307.48,220.8Zm-24.57,12.07c1.73-1,2.76-3,4.48-4-1.51,1.31-2.39,3.46-4.17,4.4C283.47,232.81,282.78,233.24,282.91,232.87Zm8.19-4,.77-1.46c.51-.08,1.34-.47,1.35-.06C292.29,227.54,292,228.63,291.1,228.85Zm-10.39,4.2c.14-.61-2.19,1.18-1.16-.29,1.34-1.32.33.43,1.89-.59l-1,1.82c-.5.06-2,1.73-1.73.79A23.21,23.21,0,0,1,280.71,233.05Zm56-25.94c-1.12.68-.9,1.62-2.26,2.37C335,208.22,336.88,205.92,336.67,207.11Zm-38,15a22.05,22.05,0,0,1-2.89,3C296.35,223.62,297.57,223,298.63,222.09ZM364,255.29c-.77-.51-1.63-.95-1.94-1.81C362.4,253.16,363.7,254.21,364,255.29Zm-55.67-39c-1.1.83-1.94,2-3.22,2.58C305.62,217.66,308.11,215.88,308.3,216.28Zm33.91-11.72a41.31,41.31,0,0,1,3.43,3.91C344.46,208,341.57,205.26,342.21,204.56Zm-52.87,15.71c-.81,1.43.21,0,.85-.12-.32,1-1.41,1-1.82,1.94,1.33-.31,2.06-1.41,3.17-2,.37,0,1.9-.33.27,1,.27-.93-1.13.87-1.74.8-.62,1.66-2.24,2-3.1,3.35a6,6,0,0,0-3.16,2c-.32.59.85-.24.65.25-2.82,1.76-1.78,0-1.38-1.85.74-.42.42.18.65.25.33-.6,1.07-.65,1.43-1.21-.62.31-1,.42-1.19.28.73-1.28,1.73-1.63,1-1.83a4.61,4.61,0,0,1,2.13-1.53c-.2.57-1,1.18-.58,1.1A26.24,26.24,0,0,1,289.34,220.27Zm10.73-4.37c-.3-.34.72-1.13,1.32-2,.94.14,2.15-1.77,3.56-2.73-.39.9-.1.62.41.13a10.63,10.63,0,0,1,.85-.76,2.3,2.3,0,0,1,.44-.26,1.36,1.36,0,0,1,.48-.16l-.29.34-.2.23a6.09,6.09,0,0,1-.44.44c-.3.27-.62.52-.94.77a12.07,12.07,0,0,0-1.82,1.62c-1.65,2.63-.17,3.24-2.71,5.1C302,216.77,302.92,213.76,300.07,215.9ZM373.49,264c0,.41-1.82-1-1,.26,1.73,1.23,1.34.29,2.23.66.22.61.77,1,1,1.59-1.57-.23-2.78-1.17-4.26-1.47a19.39,19.39,0,0,0-3.17-5.11A20.67,20.67,0,0,1,373.49,264ZM348.2,210.75c-.58.15-1.42-.53-2.35-1.88A18.26,18.26,0,0,1,348.2,210.75Zm-65.93,14.41c-.33.67,1-.27.46.62C281.54,227.15,280.86,226.24,282.27,225.16Zm24-12.89c-.52,1-1,1.94-1.55,2.91-.46.22-.73.69-1.24.84C302.83,215.82,304.73,213.21,306.22,212.27Zm43.85.78c.52,1,1.16,1.43.45,1.38-.37-.74-1-.79-1.33-1.75ZM331.45,198c1.89-1-1.19,2.54-2.28,3.12C329.87,199.76,330.71,199.4,331.45,198Zm-39.33,21c.53-.53,2-1.15,1.35-.06C292.58,219.37,291.75,219.77,292.12,219Zm59.78-5.13c-.18-.07-.34-.11-.12.24a3.16,3.16,0,0,1,1.31,1.17,6.13,6.13,0,0,1-2.61-2.34C351,213.19,351.54,213.3,351.9,213.86Zm.35-3.09c-.72-1.38-2-1.42-2.73-2.82C350.43,208.27,352.71,210.32,352.25,210.77Zm-73.76,10.59c-.16.93,1.26-.88.74-.88.9-.46.79.06.81.46-1.31,1.07-.83,1.11-2.71,2.61A4.24,4.24,0,0,1,278.49,221.36Zm112.2,61.55c-1.07-.45-1.43-1.43-2.1-2.17A3.49,3.49,0,0,1,390.69,282.91ZM352.27,201a5.46,5.46,0,0,1-2.28-2.52A5.46,5.46,0,0,1,352.27,201Zm17.6,34c.9,1.49-1.14.41-1.46-.78C369.42,234.79,368.88,234,369.87,235Zm-12.33-27.7c1.72,1,4.78,4.41,4.59,5.26-.9-2-2.86-2.78-4.24-4.17C358.65,208.66,357,207.45,357.54,207.31Zm37.82,81.61c-.42-.23-.81-.4-.6-.89C395.31,288.15,396.06,288.62,395.36,288.92ZM307.19,196.5c-1.12.82-4.72,4.28-4.35,3.21C303.81,198.44,307.64,195.43,307.19,196.5Zm39.45-17c1.24,2.18,2.74,3.31,4,5.18-1.69-1.06-3-3.45-4.81-4-.76-1.28-1.67-1.77-2.4-3.18A14.92,14.92,0,0,0,346.64,179.49Zm34.95,61.21c.7,1.28.8,1.93-.67,1-.73-.9-.46-1.58-1.84-2.83C380.27,239.2,380.52,240.27,381.59,240.7Zm-38.9-73.89c-.64-.43-1.26-.87-1.87-1.33a27.72,27.72,0,0,1-3.54,3.8c1.16-1.54,2.37-3.26,3.54-4.56A12.12,12.12,0,0,1,342.69,166.81Zm30.07,47.36a2.94,2.94,0,0,1-1.13-.85,8,8,0,0,1-1-1.53,5.81,5.81,0,0,1,1.5,1.22A4.27,4.27,0,0,1,372.76,214.17Zm-7.82-14.9a16.38,16.38,0,0,1-4.68-4.6A33.32,33.32,0,0,1,364.94,199.27Zm8.82,12.28c1,1.75,3,2.77,4.2,4.33a4.92,4.92,0,0,1-2.33-1.49c-.39-.38-.8-.82-1.24-1.28l-.67-.71-.86-.86c-.56-.31-.57.07-1.27-1.12C371.9,210.38,372.57,210.69,373.76,211.55Zm15.13,28.82a17.56,17.56,0,0,1-4.24-3.83A16.82,16.82,0,0,1,388.89,240.37ZM354.26,177a36.88,36.88,0,0,1-4-3.73c1.09.5,0-1.17,1.45-.33C353.68,175.42,352.6,174.79,354.26,177Zm-8-7.43c-.63-1.55-1.88-2.42-3.74-4.89,3.38,3.26,6.5,4.46,8.09,7.52C347.66,169.46,347.73,170.29,346.24,169.53Zm8,9.06c-.79-1.55-4.5-4.33-3.66-4.46a35.5,35.5,0,0,1,5.16,5.8c-1-.73-.82-.24.19,1.1a31.1,31.1,0,0,1-4.86-4.58C351.87,176.88,354.91,180,354.25,178.59Zm24.1,35.14c-.49-.89-1.57-1.33-1.89-2.33C377.34,211.72,379,213.82,378.35,213.73Zm-3.15-3.26c1,.62-.33-1.19,1-.26C377.15,211.53,376.05,211.63,375.2,210.47Zm4.08,7.69a12.51,12.51,0,0,1,2.5,1.86,6.93,6.93,0,0,0,1.69,2.47c-1.33-1-.84-.47-2.19-1.16-.07-.78-.27-1.26-1.74-2C379.24,218.74,379.13,218.32,379.28,218.16Zm26.9,54.55c-1.18-.41-2.12-1.72-2.55-1.35l-.32-.7c-.23-.14-.46-.28-.53-.54A5.83,5.83,0,0,1,406.18,272.71ZM395.77,294c-.37.09-.21.35-.73.15C394.67,293.8,395.54,293.71,395.77,294ZM358.9,182.41a37.68,37.68,0,0,1-4.21-4.83C356.18,178.14,359.46,182.67,358.9,182.41Zm45,81.73a11.07,11.07,0,0,1-3.15-3.25A10.82,10.82,0,0,1,403.91,264.14Zm-26.9-62c-.87-1.11-.68-.41-1.74-1.22-1.9-2.1-1.48-2.74-4.53-5-.51.11,2.57,3.07.76,2.05a12.84,12.84,0,0,1-3.22-4.37C371.31,195.65,376.71,200.69,377,202.12Zm22.74,51.13c1,1.28,2.73,2,3.31,3.59-1.37-.68-2.16-1.81-3.4-2.59C399.19,253.4,399.15,253,399.75,253.25ZM388.21,225a5.82,5.82,0,0,1,1.16,1.93C388.18,226.57,387.14,224.46,388.21,225Zm-6-17.42a1.3,1.3,0,0,0-.94-.23,6,6,0,0,1-1.16-1.93A5,5,0,0,1,382.17,207.59Zm11.07,23c-.82-.79-2.26-1.1-2.66-2.21A7.65,7.65,0,0,1,393.24,230.58Zm5.85,9.16c-1.51-.68-1.27-1.49-2.35-1.51-.3-.62-.41-1-.27-1.2A5,5,0,0,1,399.09,239.74Zm-5.55-6.11c.61,1.4,2.5,1.86,2.93,3.4C395,236.56,393,234,393.54,233.63Zm-8.93-21.32c-1.24-.32-1.47-1.4-1.9-2.32C383.76,210.45,384,211.52,384.61,212.31Zm11.89,22.37c-1.12-.41-1.52-1.35-2.3-2C394.67,232.3,396.1,233.61,396.5,234.68Zm4,2.63c-1.8-1.08-2.4-1.65-3.13-1.4-1-1-.3-.93-.43-1.54a12.48,12.48,0,0,1,2.51,1.86c-.24-.44-1-1.13-.48-1a9.49,9.49,0,0,1,2.89,3.91c-.44-.16-.47.12-1.3-.43C399.71,237.39,400.61,237.89,400.47,237.31Zm2.8,4.91a28.09,28.09,0,0,1-5.45-5.26C399,236.46,401.8,240.12,403.27,242.22ZM387,209.11a38.26,38.26,0,0,1-3.83-4.14A13,13,0,0,1,387,209.11Zm4.77,10.43c-.37.11-1,.41-1.82-1A2.12,2.12,0,0,1,391.78,219.54Zm.53-3.67c1.21,1.68-1.52-.71-1,.27s1.82,1.13,2.09,2.17a18.43,18.43,0,0,1-4.39-4.18C389.81,214.15,391.05,215.77,392.31,215.87Zm11.82,29.44c2.34,1.28,3.24,3.89,1.95,3.67C405.68,247.84,406.05,247.85,404.13,245.31Zm1.59-.73c-.6-.33-1.22-.65-1.82-1-.13-.38-.52-1-.11-.85C404.09,243.62,405.69,243.52,405.72,244.58Zm-5.54-14.53c.53,1-.35.5-1,.27-.23-.45-.69-.73-.85-1.24Zm-2.09-6.37c.21.89-.19,1.15-1.39.58C395.83,222.71,397.07,222.71,398.09,223.68Zm7.45,18.69c1.25.44,2,2.25,1.69,2.48C405.47,243.88,406.39,243.8,405.54,242.37Zm-2.89-14.16a5.3,5.3,0,0,0,1,1.58c-1.52-1.13-1.37-1.72-2.87-2,.23-.92-1.17-1.43-1.84-2.82C400.46,225.8,401.09,227.34,402.65,228.21Zm6.31,8.35c-1-2.25-4.95-4.69-5-6.08C405.46,232.11,410.26,235.92,409,236.56Zm-1.58-1.63c-.72-.38,0,.7-1.13-.08a6.08,6.08,0,0,1-1-1.58C406.55,234.35,406.42,233.6,407.38,234.93Zm9.48,9.25c.22.92,1.31,1.19,1.53,2.12a7.66,7.66,0,0,1-2.31-2C416.57,244.48,416.44,244.05,416.86,244.18ZM440,279.93c-1.42-1.35-6-5.19-3.73-4.36C436.74,276.86,440.77,280,440,279.93Zm-26,29.54c-1.51,1-.58-1,.5-1.55C413.9,308.81,414.76,308.33,414,309.47Zm25.68-30.79a8.22,8.22,0,0,1-2.55-2.79c1.31,1,2.26.75,3.08,1.86C439.4,277.45,440,278.51,439.64,278.68Zm2.67,1.07c1.53,2.08-1.42.38-2.34-1.1C440.38,278.64,440.31,278.15,442.31,279.75Zm-10.43-19.23c.61,1.66,2.94,2.68,3.64,4.26a76.74,76.74,0,0,1-7.07-6.66Zm11.76,19.13-2.27-1.58-.72-1.29A10,10,0,0,1,443.64,279.65Zm3.53,7.28c2.91,2,1.07,1.71,3,3.82C448.59,289.43,446.57,287,447.17,286.93Zm3.16,4.95-2.19,1.43a6.19,6.19,0,0,1,1.3-1.82c-.87-.81-1.38-1.49-.62-1.21a3.2,3.2,0,0,0,1.42,1.21A1,1,0,0,0,450.33,291.88Zm-44.91,26.2a9.4,9.4,0,0,1,2.13-1.52A113.68,113.68,0,0,1,396,327.35c.51-1.8,2.43-1.73,3.09-3.35-.89.45-1.46,1.2-1.2.28,1.2-1.17,1-.24,2.44-1.12.78-1.65,2.54-2,3.29-3.71a7,7,0,0,1-2.48,1.68c.33-.81,1.06-1.08,1.32-2,1.1-.8.38,1,1.55-.43.6-1-1.21.33-.28-1a5.56,5.56,0,0,1,1.79-1.37C405.71,316.74,404.84,318.11,405.42,318.08ZM449.78,287c.64,1.47,2.49,3,3.84,4.47a14.55,14.55,0,0,1-1.31,1.09c.33-.88-.79-.26-.27-1.09a13.27,13.27,0,0,1-1.26-1.05c-1.3-1.82.6-.36.79-.67a45.17,45.17,0,0,0-4.07-3.6C446.61,284.76,448.06,285.76,449.78,287Zm-8-15.87c-2-1.43-4-2.76-5-4.39C438.44,268.19,440.76,269.54,441.77,271.15Zm-4.23,29.69.92-1.6,1.51-.95A5.55,5.55,0,0,1,437.54,300.84ZM429,313.43a7.42,7.42,0,0,1-2,1.82c2.26-3.14,5-3.62,6.81-5.06l1.42-2.28a57,57,0,0,0,9.52-8.77c-.34-.54.23-1.78.93-2.69,1.37,0,1.05-1.49,3.43-3-1.66,2.58-3.23,4.66-3.8,6.37a22.71,22.71,0,0,0-5.38,4.79c-1.7,1.92-3.36,4-5,5.69.16-.51,2.12-2.78.95-2-1.15,1.63-2.75,3-3.9,4.7.65-.45,1.7-1.58,1.53-1-1.85,1.21-4.84,5.31-5.57,4.92a12.48,12.48,0,0,0,2.82-3.14c.56-.94.54-1.47-.58-.83.53.77-5.11,5.58-5.5,5.38C426.14,317,430.7,313.05,429,313.43Zm-.62,2.39c.25.15-1.26,2.11-2.38,3.21.47-1-1.89,1.71-2.73,2A33,33,0,0,1,428.38,315.82Zm13.09-44.61a75.29,75.29,0,0,1,6.47,6.78C445.51,275.88,441.29,272.05,441.47,271.21Zm11.25,17.89c-.59-.8-2-1.65-2-2.44C452.26,287.32,454,289.9,452.72,289.1Zm-3.59,7.66c.58-1.07,3.41-4.1,3.87-3.61C451.5,294.32,450.6,295.6,449.13,296.76ZM452.07,282c-.53,0-3.14-2.24-3.87-3.58A16.78,16.78,0,0,1,452.07,282Zm-59.25,47.91c-.14-.66,1.56-1.65.81-2C395.2,326.88,393.87,329.44,392.82,329.93Zm-2.9,3c-.35-.45,1.13-1.65,1.55-2.92l1-.47C391.77,330.82,391.15,332.26,389.92,332.91Zm48-25.34c.91-1,3.48-4.2,3.81-3.55C440.34,305.16,439.47,306.54,437.9,307.57Zm12-6.25a8.2,8.2,0,0,1,3-3.09A8.27,8.27,0,0,1,449.89,301.32ZM420.43,322.7l-.75.71-.53.54c-.35.36-.7.72-1.08,1,.3-.6.39-1,.56-1.39s.33-.65,1.37-1.54C419.45,323,421.31,321.49,420.43,322.7Zm-6.57,4.77a5.45,5.45,0,0,0-1.59,1l.39-.73c-.2.07-.39.13-.15-.21,1.85-1,0-.8.62-1.66.74-.46,1.18-1.33,2.12-1.53C414.23,325.93,414.48,326.28,413.86,327.47Zm4.63-1.28c-.48.17-1.35.71-1.2.27a13.24,13.24,0,0,0,1.85-1.89,8.23,8.23,0,0,1,.95-.92,7.92,7.92,0,0,1,1.58-1.09,16,16,0,0,1-1.28,1.46c-.27.29-.54.52-.78.74A3.65,3.65,0,0,0,418.49,326.19ZM314.54,373.77c-1.18.66-.7-.28-.08-1.35a4.84,4.84,0,0,0,1.24-.84C315.93,371.83,315.26,373.08,314.54,373.77ZM378,345a6.94,6.94,0,0,1-2.86,2.41c.55-1.18,0-2,1.89-3.07C376.52,345.53,376.22,346.42,378,345Zm29.43-11.82c1-1,1.54-.89,1.55-.43,1.53-2.32,5-5.33,6.6-5.51a25.52,25.52,0,0,0-6.34,6.49c.14-.61-.41-.54-1.16-.3.24.54.18.66-1,1.83-.73.42-.42-.18-.65-.26-.13,1.09-.45.75-1.47,1.79,1.1-.34-.5,1.38-1.47,1.77-.29-.33.95-1.36,1.36-2.56C406.81,334.31,407.17,334.48,407.4,333.19ZM440.74,316c-2.91,2.11-3.79,4.69-5.2,6.17-2.5,1.54.55-1.33,1-2.78,1.31-.57,1.85-1.9,2.64-2.95C440.6,315.41,441.25,315.12,440.74,316Zm-31.41,18.54c-1.31,1-2.49,2.08-3.75,3.1a13.74,13.74,0,0,1,2.2-2.67C407.41,335.59,410,332.89,409.33,334.52Zm14.29-4.61c-.12-.13,0-.6.3-1.1a4.68,4.68,0,0,1,.53-.73,5.9,5.9,0,0,1,1.05-.89,8.51,8.51,0,0,0-.68.95,1.41,1.41,0,0,0-.2.38l-.16.34A2.08,2.08,0,0,1,423.62,329.91Zm3.16.48c.8-1.46,2.12-2.29,3-3.78-1.42,1-2.46,2.2-1.78.86,1.52-1.27,5.19-5.24,5.56-4.58-.88,1.13-1.73,2.34-2.79,3.61A26.93,26.93,0,0,1,426.78,330.39Zm-24.72,9.39c-.85,0-2.1,2.51-2.13,1.52C400.61,340.46,402.39,338.38,402.06,339.78Zm8.53-1.7c1-1.2,2.1-2.18,3.1-3.35C413.82,335.1,411.06,338.51,410.59,338.08Zm12.87-5.89a1.27,1.27,0,0,0,.23-.93,16.14,16.14,0,0,0,1.68-1.33c.46-.35,1.48-1.23,1.37-.75-.22.16-.49.38-.66.52a3.15,3.15,0,0,0-.37.36c-.24.25-.46.52-.69.8A4,4,0,0,1,423.46,332.19ZM390.85,351c1.43-1.92,4.13-4.52,6.18-6.69-.58.15-1.42.55-.81-.46,1,.54,1.31-.9,3.17-2-.69,1.36-1.49,2.14-.5,2.44C396.23,344.88,393.77,348.9,390.85,351ZM297,390.9c1-.71,1.46-2.21,2.71-2.62C299.11,389.16,297.23,391.54,297,390.9Zm61.81-27.19a2.25,2.25,0,0,0-1.63,1.57c-1.54.41.69-3,2.48-4.17C358.41,363.09,358.52,363,358.83,363.71Zm59.06-26.48a54.14,54.14,0,0,1,4.87-4.72l-.58,1.1C420.62,334.64,419.44,336.19,417.89,337.23ZM383.7,352.05c1.12-1,3.48-3.64,4.1-3.26C386.52,349.59,384.44,352.58,383.7,352.05Zm4.25-.57c-1.78.95-2.93,2.74-4.64,3.79a16.63,16.63,0,0,1,5.22-4.88A1,1,0,0,0,388,351.48Zm27.93-12c.31-.6-.86.24-.66-.25.88-.49,1.32-1.57,2.32-1.89A4.33,4.33,0,0,1,415.88,339.53Zm-5.38,4.67a7,7,0,0,1,2.55-2.83C412.24,342.35,411.59,343.57,410.5,344.2Zm-21.82,8.88c-1.18,2-1.87,1.75-3.37,2.37.37-.65.53-1.1.44-1.3l.69-.32C386.31,354.82,387.21,354.25,388.68,353.08ZM414.29,343c-1.54,1.28-2.64,3.14-4.49,4,1.34-1.47.38-1.69,1.55-2.92,1.63-1.2.69,1,1.7-.22.22-.63-.64-.21.27-1.5C414.33,341.91,414.17,342.59,414.29,343Zm-7.58,4.85c-.06-.29.06-.76.62-1.66,1.1-.21,1.48-1.36,2.48-1.69l-.39.73C408.3,345.63,408.14,346.66,406.71,347.86Zm-27.39,13.93c1.29-1.22,4.06-5.6,4.33-4.2C381.88,358.55,381.13,360.87,379.32,361.79ZM370,368a7.62,7.62,0,0,1,2-2.3C372.21,366,371,367.57,370,368Zm.58,1.39c1.83-1.38,5.35-6.15,6.06-5C374.5,365.54,371.82,369.21,370.55,369.39Zm-11.4,6.6a5.59,5.59,0,0,1,2-2.3C361.41,374,360.1,375.44,359.15,376Zm3.05-.3c-2.19.62-3.19,2.82-5,3.95.41-1.5,3.83-3.9,5.61-5.61C362.21,375,363,374.53,362.2,375.69Zm-.24.94c-2,1-1.15,2.46-3.28,3.72,1.2-1.78.56-1,.81-2C360.26,377.52,362.33,375.28,362,376.63Zm-9.36,8.71a6.07,6.07,0,0,1,2.21-2.67C355.06,383.07,353.84,385,352.6,385.34Zm23.92-9.85c.49-1.42,1.63-2,2.55-2.82A11.35,11.35,0,0,1,376.52,375.49Zm.85-.11c.32-.86,2.32-2.63,2.31-1.89C378.77,373.93,378.49,375.22,377.37,375.38Zm-4.91,2.8c.3-.65-1.06.31-1-.09a3.33,3.33,0,0,1,1.82-1.94C372.54,377.17,374,377,372.46,378.18Zm1.88,1.9c0-.28.79-1.64.12-1.72a3.86,3.86,0,0,1-2.12,1.53c1.14-1.59,2-3.52,3.67-4.44C374.34,377.93,377.26,378.08,374.34,380.08Zm-33.06,13.2c.14-.92,2.09-2.52,2-1.73C342.5,392,342.23,393.09,341.28,393.28Zm27.85-10.81a3.33,3.33,0,0,1,1.82-1.94A3.39,3.39,0,0,1,369.13,382.47Zm-22.91,9.93c-1.2,1.33-3.47,3.78-4.29,3.62-.72,1.28-3,2.53-2.59,3.39l-1.39.64c.41-1.07,1.25-1.43,1-1.83,1.75-1.24,2.56-2,2.39-3,1.32-.92.55.18,1,.09l1-1.83C345.08,392.75,344,394.35,346.22,392.4ZM336,401.21c-2,.85,1-2.78,2.24-3.24-.19.49.25.36.12.78C336.67,400.53,336.57,399.22,336,401.21Zm-2.44,3.6c-1.62.92-.55-.77,0-1.92.57-.28.77-1.05,1.44-1.21C334.52,403.31,333.65,403.44,333.58,404.81ZM325,409a6,6,0,0,1,2.36-2.46A5.14,5.14,0,0,1,325,409Zm-76,29c-.18.18-.69,0-.48-.73.08.54.37.18.42-.24A4.23,4.23,0,0,1,249,438Zm62.61-13.23c-2,.92,1.53-3.86,2.06-2.87C312.33,422.79,313,423.34,311.65,424.79Zm-63.59,12.48a1,1,0,0,1-.9-1.41c.23.82.44-.45.73-.66a5.35,5.35,0,0,1-.39,1.62C247.92,436.38,248.26,436.45,248.06,437.27Zm-1.79-1.89c.09.27.42.11.44.52C246.36,436.67,245.68,435.66,246.27,435.38Zm72.43-3.05a7.71,7.71,0,0,1,2.71-2.62A5.73,5.73,0,0,1,318.7,432.33Zm-4.41,5.33c-.1,1.48-1.28,1.28-2.16,2.1,1.11-.14.07,1.53-.16,2.28-1.67.84.93-2.44-.73-1.6-.16.44.12.47-.43,1.3-.39.39-2.37,1.7-2.09,1,1.82-1.15,6.06-8.56,6-5.77,1.1-1.05,3.25-3.94,3.94-3.46C318.29,434.48,315.31,437.57,314.29,437.66Zm-.85,2.6a23.16,23.16,0,0,1,3.82-4.23A14.05,14.05,0,0,1,313.44,440.26Zm-82.17-17.57c-.88-1.38-4.31-3.28-3.82-4.14C228.62,419.87,231.66,421.69,231.27,422.69Zm77.6,22.7c-.48.18-1.35.71-1.2.27,1.59-1,2.08-1.65,2.21-2.66C311.17,442.75,309.71,444.25,308.87,445.39Zm-6,3.84c-.92.22-1.09,1.46-2.13,1.53C301.34,449.8,303.37,448,302.88,449.23Zm3.86.17c-.85.47-1.26.51-1-.09.44-.25.95-.39,1.23-.84s.39-.73.74-.89ZM218,409.31c.44.15.47-.12,1.3.43.19.94,1.07,1.38,1.52,2.12A6.23,6.23,0,0,1,218,409.31Zm75.32,49.56c0-.37-1.37.94-1.58,1-.2.49.24.36.11.78-1.36,1.46-2.26,1.37-1.51-.14,1.52-1.31,2.87-2.83,4.49-4C293.92,457.77,293.77,458.4,293.29,458.87Zm-79.21-55.05.63,1.39C213.43,404.74,212.55,402.8,214.08,403.82Zm71.86,61.45a4,4,0,0,1-.4.49l-.46.54c-.32.35-.64.7-1,1A11,11,0,0,1,282,469a13,13,0,0,1,1.82-2.21c.33-.33.66-.63,1-.92l.52-.44a4.29,4.29,0,0,1,.46-.34,3,3,0,0,0-.12.29C285.65,465.44,285.8,465.36,285.94,465.27Zm-85-72.13a16,16,0,0,1-1.52-2.12c.51.31.45-.83,1.3.42-.81-.34-.42.49.48,1.05,0-.39.18-.55.61-.47.32.7,1.2,1,1.37,1.78C201.52,392.69,202.52,394.26,200.9,393.14Zm72.27,86.44c-2,1.63-6.23,6.45-6.79,6.12,1.36-1.08,2.65-2.77,4-4.07-.79.4-1.5,1.27-2.29,1.7,1.18-1.47,3-3.52,2.86-4.05C272.05,479,272.77,479.14,273.17,479.58Zm-77.51-91.85c.63.22.58-.26,1.51.27C197.5,388.86,196.62,389.26,195.66,387.73Zm68,100.25c-2.22,1.39-2,.45-1.46-.91a9.79,9.79,0,0,0,1.74-1.34C263.06,487.28,265.84,485.21,263.69,488ZM193.82,384.91a3.33,3.33,0,0,1,1.94,1.82A3.33,3.33,0,0,1,193.82,384.91ZM258,494.14a66.26,66.26,0,0,1,7.12-7c-2.52,2.66-3,3.48-4.88,5.32.24-.42.13-.49-.46-.09A5,5,0,0,1,258,494.14Zm-3.5,2.72c.52-.81-.43-.19-.38-.53a42.9,42.9,0,0,1,7.36-7.4c-1.36,1.82-.31,1.27-1.71,3.12C258,493.48,256.19,495.51,254.45,496.86Zm-67.9-118.18c1.27.75,2.27,1.24,2.24.67.52,1,1.63,1.58,2.25,2.5-2.14-1,.36,1.08-.82.62C189.39,380.92,187.6,380.07,186.55,378.68ZM251.19,502c-.91.59-.43-.18-1.23.31l0,0c-.47-.3-.21.14-.51,0-1.84-2.3-.76-1.61.53-.71l.07-.09a5.29,5.29,0,0,0,1.73-1.33c-.42.17.26-.74.94-1.64l1.28-.72C251.56,501,252,500.38,251.19,502Zm-5.82-6c-1.53-1.1-2.88-3-4.33-4.41C242.7,492.42,245.43,495,245.37,496Zm-10-8.7a27.85,27.85,0,0,1-4-3.91c1.48.64,2.41,2.25,3.64,3.34-.19-.37-.73-1.1-.26-.81A2.86,2.86,0,0,1,235.41,487.33Zm-9.49-11c1.27,1.68,3,2.74,4.15,4.6C228.7,480.06,225.26,476.58,225.92,476.37Zm1,.68a4.62,4.62,0,0,0-1.36-1.21c-.93-1.31-1.16-1.91-.35-1.44.6.82,1.4,1.43,2,2.25C226.6,476.22,227.4,477.28,226.94,477.05ZM217.25,467a34.26,34.26,0,0,1,7,6.74C221.55,471.82,219.7,469.12,217.25,467Zm-2.47-.51c1.61.36,4.18,3.16,6.15,5.36A24.87,24.87,0,0,1,214.78,466.47Zm-5.57-8.13c-.09-.41.22-.39-.27-1.19a7.65,7.65,0,0,1,3.51,3.44C211.05,459.22,209.51,458.16,209.21,458.34Zm-17-14.81c.9.41-.78-.87-.64-1.39.79.23,2.22,2.3,1.53,2.12C192.72,443.56,192.59,444.14,192.22,443.53ZM82.85,333.08a11,11,0,0,1-1.69-2.47,15.49,15.49,0,0,1,3.76,2.78l.48,1C83.69,333.08,84,333.25,82.85,333.08Zm-9.61-10.79c1.28,2.18,4.66,4.09,3.22,4.19C75.7,325.28,72.22,322.22,73.24,322.29ZM165,224c-1.93,3.14,2.81-2.39.93,1.23a3.92,3.92,0,0,0-2.28,1.32A2.53,2.53,0,0,1,165,224Zm-1.78,3.85a3,3,0,0,0-1.24.84c-.22.59.91.76-.46,1.87-.4,0,.09-.91-.81-.45,1.37-1.5.53-2.19,1.93-3.65C163.23,226.52,164.08,226.35,163.2,227.85ZM52.55,280.44a23.24,23.24,0,0,1,3.8-3.9c.46.16-1.55,1.95-2.15,3.35C52.45,281.25,53.67,279.7,52.55,280.44ZM169,220c1-.4.81.4,1.3.51-.87.49-1.12,1.82-2.16,2.1C168.46,221.31,168.68,221.22,169,220ZM62,271.7c-2.33,1.95-1,1.83-3.21,3.5C58.09,275.49,61.83,270.69,62,271.7Zm107.85-52.42a2.9,2.9,0,0,1,1.62-1.57,2.26,2.26,0,0,1-.78,1.46C170.87,218.77,170.36,219,169.86,219.28Zm-25.29-33.15c-1.23.63-1.73,2.25-2.9,3C142.09,187.76,144.24,185.53,144.57,186.13Zm4.18-4.4c-1.38,1.28-2.54,2.84-4.14,3.82A9.14,9.14,0,0,1,148.75,181.73Zm1.51-2.35-.78,1.46-1,.48C148.76,180.29,149.58,179.93,150.26,179.38Zm99.56-69c1.13-.51.78.43.22,1.55-1.06,1.51-3,3.33-4.6,5.7-.38.13-1,.51-.85.11A64.13,64.13,0,0,1,249.82,110.34Zm7.23-7.18c.62-.24,1-.29,1,.1-1.72,1.86-3.25,4-5.1,5.64C254.26,106.93,255.73,105.15,257.05,103.16Zm-59.22,26.28c.11.6-1.58,3-2.79,3.77A14.55,14.55,0,0,1,197.83,129.44ZM264.4,94.28c-1.9,2.79-3.75,5-4.19,6.88l-1.38.64C260.26,100,261.05,96.88,264.4,94.28Zm-50.09,13.53a6.43,6.43,0,0,1,1.13-1.61c1.75-.87-.16,1.8,2.16.39-.93,1-1.56,2.49-2.9,3C216.48,107.87,216.42,106.71,214.31,107.81ZM284.58,75.1c1-.51.32.63.62.82-.75.45-1.18,1.33-2.13,1.53C283.52,76.59,284.24,76.1,284.58,75.1Zm-17.33,2.41c.86-.62.8-1.83,1-2.39,1.31-.92.54.18,1,.09a1.77,1.77,0,0,1,.89-.68c-1.26,1.41-2.5,2.46-1.36,2.55C268.14,77.73,267.4,77.83,267.25,77.51Zm-18.41,1c-.86.31-1,1.54-2,1.74C247,79.29,249,77.69,248.84,78.48Zm7.58-7.33a13.61,13.61,0,0,1-3.83,4.23C253.91,74,254.81,72.11,256.42,71.15Zm5.57-5c-.57.9-1.14,1.82-2.17,2.1A5,5,0,0,1,262,66.11Zm-2.08-1.53c1-.36,1.24-.64,1.08-1,1.48-.85-.59,1.9-1.32,2A1.35,1.35,0,0,0,259.91,64.58Zm51.15-43.29c.28.37-.91,2-1.71,2.71C309.14,23.72,310,21.76,311.06,21.29Z" transform="translate(-24.51 4.72)"/><path class="cls-2" d="M454.58,279.63c-.91-.57,1.07,1.26-.07.48,4.94,3.76,8.39,7.61,12.12,11.38-1.51,1.49-3,3-4.27,4.51,1.72-1.48,3.39-3,5-4.51-2.78-3-5.83-6-8.87-9-.73-.49,0,.46.2,1C457.38,282.18,455.68,280.9,454.58,279.63Z" transform="translate(-24.51 4.72)"/><path class="cls-2" d="M253.45,312.63c1.1-.61,1.64-2,2.55-2.83A8.32,8.32,0,0,0,253.45,312.63Z" transform="translate(-24.51 4.72)"/><path class="cls-2" d="M300.33,263c-.56.83-.28.86-.43,1.3.53-.32.77-1,1.12-1.61.17.07.36.12.85-.11C302.23,261.54,301.2,262.52,300.33,263Z" transform="translate(-24.51 4.72)"/><path class="cls-2" d="M248.14,287.44c-1,1.2,1.76-1.58,2.08-.95.29-.69-.18-.65-.27-1C248.52,286.35,249.57,286.6,248.14,287.44Z" transform="translate(-24.51 4.72)"/><path class="cls-2" d="M270.62,276.33c-.48.82-.33,1,.46.61-.19-.27.37-1,1.13-1.62C272.56,274.51,271.05,276.17,270.62,276.33Z" transform="translate(-24.51 4.72)"/><path class="cls-2" d="M265.52,277c-.23-.07.09-.67-.65-.25-.56.9-.69,1.37-.62,1.66.67-.34.88-1.31,1.62-1.57C266,276.46,265.63,276.8,265.52,277Z" transform="translate(-24.51 4.72)"/><path class="cls-2" d="M315.63,253.51c1.33-.48.47-.91.77-1.46.59-1,.34.23,1.39-.63A11.82,11.82,0,0,1,322,247c.1-.46,0-.68.08-1.14a25.28,25.28,0,0,1-5.61,5.6C316.19,252.53,315.37,253.15,315.63,253.51Z" transform="translate(-24.51 4.72)"/><path class="cls-2" d="M261,277.15c3.18-3.34,5.5-5.3,8.2-9-.55.19-1.23,1-1.05.47-1.33,1-.58.84-1.66,2.14-.18-.71-4.15,3.85-3.36,2.37C262.12,273.42,261.11,276.14,261,277.15Z" transform="translate(-24.51 4.72)"/><path class="cls-2" d="M332.51,243a11.44,11.44,0,0,0,2.73-2.14l.83-.82.21-.22.05-.06.07-.09a1.7,1.7,0,0,0,.22-.42l-.33.25-.18.13-.71.66Z" transform="translate(-24.51 4.72)"/><path class="cls-2" d="M211.57,295.35c.31.35-.77,1-1.16,2.19,1.9-1.49,1.55-1.78,2.21-2.67C212.75,294.4,212.09,295.22,211.57,295.35Z" transform="translate(-24.51 4.72)"/><path class="cls-2" d="M268,270.34c.9-1.07,2.09-1.77,2.74-3.19C269.41,267.64,268.93,269.28,268,270.34Z" transform="translate(-24.51 4.72)"/><path class="cls-2" d="M324.92,241c-.63.9.38.21.11.78.77-.43,1.21-1.3,1.82-1.94C327.1,239,325.74,241.15,324.92,241Z" transform="translate(-24.51 4.72)"/><path class="cls-2" d="M243.53,273.81c.18-.34-.27-.08-.5,0,.33-.82,1.05-1.08,1.32-2a8.21,8.21,0,0,0-3.09,3.34C242.47,274.35,242.63,273.73,243.53,273.81Z" transform="translate(-24.51 4.72)"/><path class="cls-2" d="M278.32,250.44c1.17-1.63,1.37-.95,2.85-2.42a11.32,11.32,0,0,1,.47-1.87C280.65,247.59,278.37,249.73,278.32,250.44Z" transform="translate(-24.51 4.72)"/><path class="cls-2" d="M341.45,229.4c-.13-.81.53.26.48-.57s-.51,0-.7-.94c0,.8-.48.59-.11,2.05.26-.08.53,0,.75.46C342.11,230.18,341.55,229.77,341.45,229.4Z" transform="translate(-24.51 4.72)"/><path class="cls-2" d="M343,231.83c.29.91,1,.31,1.13,1.62.46-.2-.12-.62.15-.77C343.85,232.41,343.48,231.9,343,231.83Z" transform="translate(-24.51 4.72)"/><path class="cls-2" d="M345.11,233.22c-.08-.4.11-.51,0-.94a3.42,3.42,0,0,1-1.64-2c-.19,1.33,1,1.39,1.05,2.8.56-.34.72.44.76,1.21.6.38.75.09,1.44.28-.11-.31-.3-.52-.42-.83-.37-.1-.17.42-.42.47s-.18-.2-.33-.18c0-.36.46-.24.18-.92C345.45,232.9,345.29,232.92,345.11,233.22Z" transform="translate(-24.51 4.72)"/><path class="cls-2" d="M262,236.67c-.16.39.23.05.34-.16.51-.25,1-.51.85-.11.53-.33.77-1,1.12-1.62C263.42,235.33,262.73,236.06,262,236.67Z" transform="translate(-24.51 4.72)"/><path class="cls-2" d="M290.28,214c-.25.69,4.13-2.64,5-4.51-.46.3-1.89,2.33-1.77,1.37C292.26,211.7,291.76,213.53,290.28,214Z" transform="translate(-24.51 4.72)"/><path class="cls-2" d="M307.78,199.67c2.1-1.73,3.35-1.64,5.88-5-.89-.53-5.28,5-5.22,3.34C306.38,200.33,309.83,197.31,307.78,199.67Z" transform="translate(-24.51 4.72)"/><path class="cls-2" d="M375.51,229.85c-1-.26.85,1.15,1,1.58.65.41.67-.09,1.09.58.34.24.28.05.21-.15l-.32-.7c.14.42-2-.73-1.09-.57C376,230,375.9,230.55,375.51,229.85Z" transform="translate(-24.51 4.72)"/><path class="cls-2" d="M360.39,188.82c-.22.44,3.72,4.26,5.12,6-1,.1,2.3,4.18,3.39,5.63.4-.62-.33-2.4-.7-3.8-1.18.63-2.74-3.06-5.84-6.14C362,190.58,361.48,190.21,360.39,188.82Z" transform="translate(-24.51 4.72)"/><path class="cls-2" d="M373.38,205.51a13.67,13.67,0,0,0,2.59,3.17l1.36,1.47c.41.45.78.87,1,1.22,1.17.53-1.65-2-.43-1.54a14.52,14.52,0,0,1-1.6-1.18A21.46,21.46,0,0,1,373.38,205.51Z" transform="translate(-24.51 4.72)"/><path class="cls-2" d="M370.55,199.72c-2-1.61-.13.51.7,1.08.63.94.5,1.12,0,.87.64.83,1.49,1.49,2.1,2.33-.64-1-.6-2.12,1.64,1.12.65.36-.39-1-.82-1.74A14.35,14.35,0,0,1,370.55,199.72Z" transform="translate(-24.51 4.72)"/><path class="cls-2" d="M386.47,217c-.34-.52-.9-.89-1.21-1.43-1.24-.85-.27.58-1.51-.27C384.64,216.13,384.91,216,386.47,217Z" transform="translate(-24.51 4.72)"/><path class="cls-2" d="M402.52,225.51c-.46.19-.49-.29-1.46-.78.76,1.22-1.07-.24.07,1.35l1.09.58c-.23-.72-.39-1.41.94.24C404.05,227.31,402.38,226,402.52,225.51Z" transform="translate(-24.51 4.72)"/><path class="cls-2" d="M414.71,250.92c-.56-.79-.4.08.15.35,0,.34-.48.24-1.14-.08.74,1,2.57,1.57,1.87.47A1.9,1.9,0,0,1,414.71,250.92Z" transform="translate(-24.51 4.72)"/><path class="cls-2" d="M431.44,292c-.53.35-.36.43-.12.29-.31.88-2.47,1.5-2.34,2.44,1.71-.77,2.07-1.78,3.12-2.66C432.11,291.83,431.29,292.39,431.44,292Z" transform="translate(-24.51 4.72)"/><path class="cls-2" d="M433.72,256.38a22.85,22.85,0,0,0-2.54-3.18c-.48-.51-1-1-1.5-1.49l-.79-.73-.21-.18-.12-.1-.23-.18a7,7,0,0,0,1.12,1.7c.48.62,1,1.23,1.52,1.83a41.11,41.11,0,0,1,2.95,3.63c1.93.67,4.78,4.27,7.59,6.63-.27-.24-1.88-2.14-3.61-4S434.33,256.49,433.72,256.38Z" transform="translate(-24.51 4.72)"/><path class="cls-2" d="M439.06,263.1c2.44,2.62,5.75,5.08,7.65,7.79,1.1.08,2.92,2.05,5,4.38A57.79,57.79,0,0,0,458.2,282c.33,0-.42-1.05.43-.49-2.28-2.15-5.21-4.2-6.13-6.42-3.71-3.06-6.3-6.22-9.39-9.37-.75-.46.33.94.72,1.64C442.1,266,441.18,264.39,439.06,263.1Z" transform="translate(-24.51 4.72)"/><path class="cls-2" d="M436.74,256.55c-.57,1.34,10.69,12.64,13.8,14.94-2.26-2.36-5.26-5.23-7.9-7.92S437.7,258.35,436.74,256.55Z" transform="translate(-24.51 4.72)"/><path class="cls-2" d="M466.11,294.44c-2.2,1.93-4.27,3.88-6.29,5.82C460.4,300.41,464.58,296.13,466.11,294.44Z" transform="translate(-24.51 4.72)"/><path class="cls-2" d="M438.77,320.59c-1.74,1.35-4.43,3.81-7.26,6.51l-2.14,2.07-2,2c-.77.76-1.5,1.5-2.13,2.16A4.77,4.77,0,0,0,427,332a4.11,4.11,0,0,1,.68-.57c.08,0,.3-.2.46-.27a1.1,1.1,0,0,1,.48-.12c-.15-1.15,4.1-3.83,5.61-6.22,2.08-1.56-.84,2.08,2.05-.77C435,324.45,436.26,323,438.77,320.59Z" transform="translate(-24.51 4.72)"/><path class="cls-2" d="M440.68,320.49c-.53-.46-4.4,4.16-6.19,5.72-.75,1.41,2-1.75,2.92-2C438.79,322.13,438.19,322.53,440.68,320.49Z" transform="translate(-24.51 4.72)"/><path class="cls-2" d="M424.69,333.84a41,41,0,0,0-5.92,5.19C420.62,339.44,423.07,335.76,424.69,333.84Z" transform="translate(-24.51 4.72)"/><path class="cls-2" d="M394.84,361.31a30.22,30.22,0,0,0-2.9,3l1-.48C393.33,362.62,394.39,362.38,394.84,361.31Z" transform="translate(-24.51 4.72)"/><path class="cls-2" d="M380.56,377.78l1.16-2.19c-1.5,1.19-.87,2-2.74,3.19C378.61,379.6,380.13,377.94,380.56,377.78Z" transform="translate(-24.51 4.72)"/><path class="cls-2" d="M364.56,392.56c-1.22-.5-1.22,2.07-3.37,2.37a1.3,1.3,0,0,1-.23.94C362.48,395.2,363.33,393.63,364.56,392.56Z" transform="translate(-24.51 4.72)"/><path class="cls-2" d="M339.07,417.76c.8-.55-.07-.4-.34.16-.67.22-.18-.66-.27-1-.94.83-1.48,2.19-2.71,2.62-.33,2.07-2.29,2.85-3.68,4.44-1.06,1.38,1-.23-.08,1.14,1.32-1.76,3.19-2.82,4.37-4.76.65-.33.5.11,1.2-.28C337.29,419.8,338.31,418.47,339.07,417.76Z" transform="translate(-24.51 4.72)"/><path class="cls-2" d="M294.72,460.15c-1.8.94-2.47,3.37-4.33,4.19-.16.45.71-.09,1.19-.27C292.29,462.3,294,461.92,294.72,460.15Z" transform="translate(-24.51 4.72)"/><path class="cls-2" d="M251.43,503.78c0-.24-.62.22-1.47,1-1.72-1.92-4.35-4.5-4.49-4.28,1.48,1.6,3,2.94,4.49,4.54A17.75,17.75,0,0,1,251.43,503.78Z" transform="translate(-24.51 4.72)"/><path class="cls-2" d="M210.64,461.47c-.66-.2-.84.11-1.34.07a7.52,7.52,0,0,0,2.3,2c-.17-.8-1.06-1.08-1.57-1.63C209.75,461.27,211.93,463.5,210.64,461.47Z" transform="translate(-24.51 4.72)"/><path class="cls-2" d="M106.81,359.49c.7-.26-1.77-2.07-2.21-3-.34-.23-.28-.05-.2.15l.31.69C105.72,357.81,106.08,358.79,106.81,359.49Z" transform="translate(-24.51 4.72)"/><path class="cls-2" d="M124.09,272.26c1.59-1.41,3-3.06,4.68-4.35.16-1.22,2.4-2.89,3.83-4.24.09-.26-.15-.21,0-.57-.33.2-.25,0-.16-.2C129.84,266.22,126.7,268.89,124.09,272.26Z" transform="translate(-24.51 4.72)"/><path class="cls-2" d="M153.16,171.43c1.22-1.66-.74-.22.48-1.88-.32.2-.54.53-.89.68l-.39.73C154,169.82,151.56,172.56,153.16,171.43Z" transform="translate(-24.51 4.72)"/><path class="cls-2" d="M165.74,160.15c2-.9-.78-.61,1-1.83.22-.84-1.5.82-1.62,1.57C165.84,159.45,166.13,159.47,165.74,160.15Z" transform="translate(-24.51 4.72)"/></svg>